<?xml version="1.0" encoding="utf-8"?>
<!-- Generator: Adobe Illustrator 16.0.0, SVG Export Plug-In . SVG Version: 6.00 Build 0)  -->
<!DOCTYPE svg PUBLIC "-//W3C//DTD SVG 1.1//EN" "http://www.w3.org/Graphics/SVG/1.1/DTD/svg11.dtd">
<svg version="1.1" id="Capa_1" xmlns="http://www.w3.org/2000/svg" xmlns:xlink="http://www.w3.org/1999/xlink" x="0px" y="0px"
	 width="857px" height="115px" viewBox="0 0 857 115" enable-background="new 0 0 857 115" xml:space="preserve">
<g>
	<polygon fill="#2E3191" points="445.034,59.832 434.742,55.477 431.421,6.162 449.982,4.679 	"/>
	<path fill="#00A551" d="M446.381,19.697c0.146,0.297,0.646,0.385,1.092,0.255c-0.097,0.19,0.904,0.122,1.093,0.447
		c-1.064,1.554-1.62,3.863-4.366,3.83c0.801-1.02,1.605-3.557,0.389-4.532C445.126,19.373,445.931,19.965,446.381,19.697"/>
	<path fill="#00A551" d="M443.872,20.002c-0.023,0.688,0.325,1.193,0.312,2.042c-0.421,0.609-0.676,1.248-1.323,1.787
		c-0.323-0.341-0.801-0.564-1.094-0.638c-0.486-1.186-0.139-2.702,0.779-3.511c0.412-0.072,1.066-0.044,1.092,0.383
		C443.7,20.033,443.765,20,443.872,20.002"/>
	<polygon fill="#5185C4" points="437.803,10.184 448.986,3.755 452.448,10.292 443.395,14.978 439.533,14.215 	"/>
	<path fill="#FFFFFF" d="M452.605,11.195c-0.053,0.022-0.247,0.417-0.623,0.127c-0.169,0.054-0.126,0.281-0.234,0.383
		c-0.667,0.177-1.255,0.379-1.951,0.702c0.017-0.052,0.079-0.063,0.079-0.128c-0.666,0.208-1.405,1.137-2.573,1.149
		c-0.03,0.153,0.354-0.036,0.233,0.192c-0.815,0.023-1.252,0.929-2.105,0.957c-0.11,0.308-0.818,0.8-1.248,0.831
		c-0.166,0.891-1.729,0.109-1.248-0.383c-0.012-0.118-0.264-0.04-0.312-0.128c-0.496-1.508-1.77-2.381-2.417-3.766
		c0.279-0.452,1.06-0.833,1.56-0.894c0.492-0.427,1.428-0.831,2.027-0.957c0.767-0.57,1.896-1.165,3.197-1.085
		c0.219,0.737-0.104,1.633-0.313,2.361c-0.727-0.063-1.081,0.56-1.638,0.83c-0.432-0.111-0.399-0.42-0.546-0.638
		c0.22-0.641,1.676-0.569,1.326-1.468c-0.875,0.132-1.184,0.663-1.794,0.766c-0.539,0.644-1.718,0.765-2.339,1.339
		c0.53,0.899,1.361,1.694,1.714,2.554c2.604-1.188,5.729-1.949,8.031-3.383c0.061-0.464-0.004-0.79-0.313-1.085
		c0.02-0.08,0.155-0.064,0.157,0c-0.938-1.252-1.559-3.497-2.497-4.915c-0.167,0.051-0.437,0.155-0.545,0.064
		c-0.036,0.086-0.044,0.163-0.156,0.319c-2.271,0.95-4.302,2.096-6.083,3.447c-1.483,0.594-2.447,1.614-3.665,2.425
		c0.042,1.305,1.335,2.05,1.482,2.872c0.242,0.066,0.32,0.447,0.231,0.639c-0.128,0.271-0.729,0.365-1.014,0.638
		c-0.171,0.164-0.432,0.636-0.546,0.894c-0.45,0.993-0.928,2.286-1.248,3.255c1.271-0.257,2.018-0.52,2.729-0.702
		c0.112,0.015,0.026,0.191,0.155,0.191c0.082-0.479,1.212-0.438,1.48-0.255c0.072-0.046,0.118-0.115,0.156-0.191
		c1.697,0.061,3.612,0.059,4.756,0.511c1.531,0.236,2.969,0.549,3.666,1.468c-1.438,1.661-2.461,4.531-5.304,5.041
		c-0.646,0.453-1.113,0.452-2.104,0.128c-0.146,0.01-0.051,0.216-0.157,0.255c-0.283-0.323-0.526,0.134-0.779-0.128
		c0.012-0.075,0.145-0.054,0.233-0.064c-0.246-0.076-0.563-0.051-0.78,0.064c-1.674-0.523-2.657-1.064-4.055-1.404
		c-0.162-0.036-0.165-0.1-0.077-0.191c-0.506-0.076-1.211-0.481-1.562-0.894c-0.987,0.934-1.514,2.25-2.025,3.574
		c1.07,0.394,3.061-0.215,4.055,0.639c-0.084,0.446,0.303,0.455,0.389,0.893c0.044,0.142-0.146,0.091-0.153,0.192
		c0.583,1.512,0.703,3.3,1.014,5.296c-0.309-0.162,0.012,0.166,0.078,0.256c2.23,0.01,4.334-0.027,5.926-0.063
		c0.149-0.003,0.485,0.008,0.546,0.127c0.142-0.249,1.183-0.29,1.562-0.064c0.085-0.016,0.052-0.127,0.154-0.127
		c0.241,0.148,0.153,0.04,0.47,0c1.126-0.142,2.333,0.523,3.354,0.83c0.085,1.021,0.041,2.428-0.624,3.127
		c0.135,0.505-0.492,1.232-0.781,1.787c0.008,0.343-0.066,0.895-0.311,0.83c-0.034,1.265-0.881,2.531-1.249,3.894
		c-0.122,0.456-0.073,0.954-0.233,1.404c-0.053,0.152-0.259,0.228-0.312,0.383c-0.131,0.378,0.047,0.867-0.313,1.149
		c-0.218,1.221-0.688,2.361-1.013,3.511c-0.01,0.031-0.077-0.108-0.079-0.128c0.023,0.253-0.112,0.851-0.312,1.022
		c0.273,0.164,0.331,0.532,0.231,0.702c0.493,0.036,0.13,0.407,0.546,0.446c-0.001,0.219-0.201-0.009-0.232,0.256
		c0.046,0.154,0.295,0.142,0.468,0.191c-0.002,0.062-0.095,0.05-0.155,0.064c0.518,0.542,0.904,1.52,0.466,2.299
		c-0.548,0.19-0.691,0.707-1.092,1.02c0.814,0.334,2.027,0.343,2.652,0.83c0.018,0.914,0.147,2.06,0.078,2.873
		c-0.098,1.103-0.243,2.459-1.17,3.318c0.027,0.32-0.048,0.557-0.155,0.766c-1.234-0.012-1.849-0.852-2.729-0.639
		c-0.058-0.174,0.155-0.129,0.157-0.255c-1.067,0.214-1.008-0.446-2.026-0.638c-0.233-0.458-1.113-0.404-1.405-0.958
		c-2.704-0.972-5.302-2.95-6.862-4.915c-0.211-0.266-0.55-0.469-0.624-0.766c-0.118-0.475,0.28-0.935,0.156-1.404
		c1.097-1.313,2.307-2.537,3.821-3.51c0.113,0.033,0.194,0.095,0.313,0.128c0.233-0.042-0.076-0.137,0-0.255
		c0.161-0.001,0.267-0.03,0.622-0.127c0.121-0.033,0.004-0.151,0.079-0.191c0.04-0.021,2.066-0.461,1.638-0.256
		c0.907-0.145,1.826-0.254,2.573,0.128c0.241-0.16,1.292,0.101,1.793,0.19c0.369-0.336,0.44-0.916,0.546-1.467
		c-1.465-0.722-3.103-1.431-4.521-2.17c-0.315,0.228-0.566-0.255-0.938-0.127c-0.279-0.545-1.333-0.563-2.184-1.022
		c0.02-0.069,0.154-0.043,0.154-0.128c0.034-0.104-0.289,0.006-0.312,0.064c-0.135-0.283-0.478-0.186-0.858-0.319
		c-0.404-0.141-0.696-0.518-1.092-0.701c-0.061-0.028-0.297,0.034-0.389,0c-0.212-0.081-0.577-0.309-0.702-0.383
		c-0.142-0.085-0.429-0.34-0.312-0.383c-0.053-0.192-0.166,0.061-0.313,0c-0.535-0.796-1.779-1.011-2.417-1.723
		c0.22-0.158,0.352-0.486,0.624-0.255c0.078-0.213-0.108-0.209-0.313-0.192c0.457-1.064,0.527-1.923,1.326-2.745
		c0.776-0.187,1.541-0.126,2.186-0.318c0.041,0.051,0.081,0.103,0.077,0.19c0.364-0.036,1.724-0.083,2.104,0
		c0.177-0.036-0.094-0.098,0.079-0.19c1.632-0.363,3.125-0.11,4.366-0.383c0.873-1.122,1.771-2.397,2.34-3.574
		c-1.503-0.264-4.45-0.221-5.927-0.192c-0.237-0.146-0.452-0.311-0.702-0.447c-0.255-2.489-0.589-4.254-1.248-6.383
		c-1.915-0.107-3.303,0.221-4.679-0.319c1.354-2.586,3.044-5.412,4.055-8.489c0.063,0.012,0.078,0.064,0.157,0.064
		c0.093-0.523,0.231-1.152,0.7-1.66c-0.152-0.075,0.644-1.417,1.015-2.234c0.153-0.336,0.827-1.219,0.855-1.468
		c0.105-0.862-2.009-2.225-1.947-3.575c0.688-0.213,0.853-0.785,1.48-0.83c0.014-0.074-0.018-0.113-0.079-0.127
		c0.32-0.039,0.538-0.421,0.779-0.319c2.743-2.029,6.302-3.522,8.813-5.553c0.092,0.011,0.065,0.117,0.077,0.191
		c0.292-0.221,0.181-0.499,0.47-0.893c0.291,0.039,0.302,0.306,0.7,0.256c1.693,1.746,2.398,3.573,3.666,5.296
		c1.053,0.057,1.468-0.412,2.417-0.127c-0.001,0.151,0.136,0.188,0.078,0.383c-0.113,0.033-0.195,0.094-0.313,0.127
		c-0.169,0.011-0.248-0.052-0.233-0.192c-0.25,0.41-1.212,0.055-1.716,0.447c0.014,0.201,0.056,0.381,0.313,0.383
		c-0.271,0.547,0.568,0.85,0.546,1.659c-0.212,0.193-0.625-0.085-0.47,0.255C452.909,11.11,452.719,11.384,452.605,11.195
		 M444.496,19.684c1.217,0.975,0.411,3.511-0.39,4.531c2.744,0.035,3.302-2.275,4.364-3.829c-0.188-0.325-1.188-0.256-1.091-0.447
		c-0.449,0.13-0.946,0.042-1.092-0.255C445.838,19.951,445.034,19.359,444.496,19.684 M440.908,23.577
		c0.011-0.281-0.165-0.57-0.234-0.83c-0.117-0.439,0.052-0.801,0-1.212c-0.004-0.034-0.161,0.004-0.155-0.128
		c0.03-0.739,0.497-1.212,0.624-1.786c-1.784,0.129-3.358,0.823-4.601,1.596c0.064,0.18-0.11,0.165-0.079,0.319
		c0.131,0.014,0.914,0.651,0.624,0.958c0.936,0.261,1.54,0.971,2.34,1.148c-0.012,0.076-0.139,0.145,0,0.192
		c0.475-0.361,1.183,0.161,1.793,0.191C441.066,23.819,441.093,23.434,440.908,23.577 M443.638,20.066
		c-0.025-0.427-0.68-0.455-1.092-0.383c-0.919,0.807-1.267,2.325-0.779,3.51c0.293,0.074,0.769,0.297,1.093,0.638
		c0.647-0.539,0.902-1.178,1.323-1.787c0.015-0.85-0.335-1.355-0.312-2.043C443.765,20,443.7,20.033,443.638,20.066 M436.775,22.683
		c-0.011-0.114,0.076-0.15,0.232-0.128v-0.191c-0.252-0.079-0.059,0.207-0.313,0.128C436.62,22.158,436.616,22.667,436.775,22.683
		 M439.427,39.979c-1.466,0.112-3.287,0.009-4.21,0.702c0.026-0.022-0.391,0.419-0.391,0.767c-0.768-0.015-0.392,1.118-0.702,1.276
		c1.963,1.457,4.443,2.491,7.565,3c0.033,0.17,0.502,0.155,0.311,0.319c0.153,0.019,0.155-0.086,0.234-0.128
		c1.068,0.761,1.938,0.989,3.273,1.468c0.151-0.238,0.188-0.57,0.157-0.958c0.112-0.098,0.103-0.297,0.234-0.382
		c-0.057-1.416,0.809-2.681,1.247-3.957c0.252-0.733,0.267-1.488,0.936-1.979c0.083-1.182,1.448-2.775,0.857-4.213
		c-0.666-0.139-0.897-0.481-1.561-0.511c-0.745-0.032-0.93,0.289-1.405,0.703c-0.466,0.407-1.041,0.919-1.323,1.339
		c-0.322,0.479-0.393,1.178-0.938,1.34c0.004,0.344-0.335,0.96-0.702,1.213C441.878,39.891,440.609,39.889,439.427,39.979
		 M444.105,57.021c0.259-0.326-0.475-0.088-0.392-0.446c0.222-1.074,1.657-1.155,2.496-1.724c0.222-0.769-0.358-1.077-0.78-1.725
		c-0.584-0.896-1.021-1.613-1.872-1.787c-0.247-0.01-0.26,0.17-0.546,0.128c-0.98-0.125-1.689-0.143-2.572,0.063
		c-1.415,0.331-2.58,1.628-3.274,1.787c0.115,0.012,0.071,0.154,0.077,0.255c-1.508,0.994-0.979,3.42-0.234,4.406
		c0.119-0.188,0.631,0.607,0.313,0.383c0.262,0.332,0.693,0.615,1.014,0.83c0.566,0.384,1.392,0.822,2.184,1.211
		c1.313,0.65,2.998,1.377,4.135,1.916c1.021,0.484,1.527,0.843,2.339,0.063c0.359-1.175,0.444-2.752,0.313-3.829
		c-0.034-0.271,0.046-0.478-0.079-0.64c-0.211-0.276-0.551-0.198-0.855-0.317c-0.115-0.046-0.229-0.229-0.393-0.256
		c-0.159-0.025-0.545,0.166-1.014,0.063c-0.229-0.051-0.414-0.346-0.7-0.318C444.52,56.887,444.416,56.955,444.105,57.021"/>
	<path fill="#00A551" d="M441.22,24.023c-0.61-0.031-1.318-0.553-1.794-0.191c-0.138-0.046-0.011-0.117,0-0.192
		c-0.8-0.177-1.402-0.887-2.339-1.148c0.291-0.306-0.493-0.943-0.624-0.957c-0.032-0.154,0.145-0.139,0.079-0.319
		c1.24-0.772,2.815-1.466,4.601-1.596c-0.127,0.574-0.594,1.047-0.624,1.787c-0.006,0.132,0.151,0.094,0.155,0.128
		c0.052,0.41-0.117,0.772,0,1.212c0.07,0.26,0.246,0.549,0.234,0.831C441.093,23.434,441.066,23.819,441.22,24.023"/>
	<path fill="#FFFFFF" d="M436.697,16.43c0.253,0.1,0.061-0.261,0.312-0.162v0.243c-0.156-0.027-0.244,0.017-0.232,0.163
		C436.616,16.651,436.619,16.007,436.697,16.43"/>
	<path fill="#BE1E2D" d="M443.014,39.979c0.367-0.253,0.706-0.869,0.703-1.212c0.544-0.163,0.613-0.863,0.937-1.34
		c0.281-0.42,0.857-0.933,1.323-1.34c0.477-0.415,0.66-0.735,1.405-0.703c0.662,0.029,0.896,0.373,1.561,0.512
		c0.591,1.437-0.774,3.032-0.857,4.212c-0.669,0.491-0.684,1.246-0.936,1.979c-0.438,1.276-1.303,2.542-1.248,3.957
		c-0.13,0.085-0.121,0.284-0.233,0.382c0.029,0.388-0.005,0.719-0.156,0.958c-1.338-0.479-2.205-0.708-3.274-1.467
		c-0.079,0.041-0.081,0.146-0.234,0.127c0.191-0.164-0.275-0.149-0.311-0.319c-3.122-0.51-5.604-1.543-7.565-3
		c0.313-0.158-0.063-1.292,0.702-1.276c0-0.348,0.417-0.788,0.391-0.766c0.924-0.693,2.745-0.59,4.21-0.702
		C440.609,39.89,441.878,39.891,443.014,39.979"/>
	<path fill="#F58C3D" d="M444.261,57.084c0.287-0.025,0.475,0.27,0.703,0.318c0.467,0.104,0.853-0.09,1.012-0.063
		c0.164,0.027,0.276,0.21,0.393,0.257c0.306,0.119,0.645,0.041,0.855,0.316c0.125,0.163,0.045,0.365,0.079,0.641
		c0.133,1.075,0.048,2.652-0.313,3.828c-0.813,0.778-1.318,0.422-2.34-0.064c-1.137-0.537-2.822-1.264-4.134-1.914
		c-0.792-0.391-1.616-0.83-2.184-1.213c-0.318-0.215-0.752-0.496-1.014-0.83c0.317,0.227-0.194-0.57-0.313-0.383
		c-0.746-0.983-1.272-3.41,0.234-4.405c-0.006-0.102,0.038-0.244-0.078-0.255c0.694-0.159,1.86-1.456,3.272-1.787
		c0.885-0.206,1.594-0.188,2.574-0.063c0.286,0.041,0.3-0.138,0.546-0.128c0.853,0.174,1.287,0.891,1.872,1.787
		c0.422,0.648,1.001,0.957,0.78,1.726c-0.839,0.567-2.273,0.648-2.496,1.724c-0.083,0.358,0.648,0.12,0.39,0.446
		C444.415,56.954,444.52,56.887,444.261,57.084"/>
	<polygon fill="#BE1E2D" points="405.894,78.555 405.953,86.816 383.183,86.816 384.237,39.677 392.831,41.642 388.669,81.516 	"/>
	<polygon fill="#BE1E2D" points="410.312,86.77 410.312,46.647 397.667,49.659 397.667,41.346 428.469,39.268 428.469,46.647 
		415.799,46.647 415.799,86.77 	"/>
	<path fill="#BE1E2D" d="M423.093,50.944h8.927l-3.438,19.303c0,4.181,0.305,7.028,0.914,8.542s1.546,2.671,2.811,3.468
		c1.266,0.8,2.664,1.197,4.202,1.197c1.626,0,10.798-0.429,12.08-1.287c1.281-0.858,2.815-2.201,3.417-4.028
		c0.603-1.828,0.901-5.275,0.901-10.345l-1.901-16.85h6.964v19.121c0,4.506-0.583,8.023-1.75,10.559
		c-1.166,2.533-2.693,4.441-4.586,5.727c-1.891,1.28-12.581,1.924-15.441,1.924c-2.636,0-4.958-0.562-6.974-1.683
		c-2.015-1.12-3.539-2.796-4.573-5.026c-1.032-2.231-1.551-6.268-1.551-12.104L423.093,50.944L423.093,50.944z"/>
	<polygon fill="#BE1E2D" points="463.068,86.816 457.341,86.816 469.694,61.615 460.91,50.499 472.991,50.499 475.225,58.785 
		483.468,50.499 489.221,50.499 475.685,61.16 488.145,86.816 476.95,86.816 472.532,67.582 	"/>
	<polygon fill="#BE1E2D" points="378.777,41.623 375.819,87.372 370.407,84.628 366.869,44.479 	"/>
	<path fill="#BE1E2D" d="M377.365,35.814c0,2.808-2.277,5.084-5.086,5.084c-2.81,0-5.085-2.276-5.085-5.084s2.275-5.085,5.085-5.085
		C375.087,30.729,377.365,33.006,377.365,35.814"/>
	<g>
		<path fill="#BE1E2D" d="M490.301,61.6c0,1.207-0.427,2.229-1.277,3.069c-0.854,0.84-1.896,1.261-3.131,1.261
			c-1.128,0-2.117-0.434-2.972-1.3c-0.853-0.866-1.279-1.901-1.279-3.108c0-1.104,0.428-2.086,1.279-2.953
			c0.854-0.864,1.87-1.299,3.051-1.299c1.182,0,2.197,0.428,3.052,1.279C489.875,59.4,490.301,60.417,490.301,61.6z M489.671,61.6
			c0-1.022-0.361-1.89-1.083-2.599c-0.722-0.708-1.594-1.063-2.617-1.063c-1.022,0-1.889,0.361-2.598,1.082
			c-0.708,0.724-1.063,1.582-1.063,2.578c0,0.998,0.36,1.857,1.083,2.578c0.723,0.723,1.58,1.082,2.578,1.082
			c0.996,0,1.863-0.354,2.6-1.063C489.304,63.488,489.671,62.622,489.671,61.6z M487.9,63.921l-1.054-0.006l-0.905-1.888
			l-0.681,0.004v1.89h-1.021v-4.646h1.69c1.313,0,1.97,0.447,1.97,1.338c0,0.656-0.329,1.076-0.984,1.26L487.9,63.921z
			 M486.876,60.693c0-0.473-0.329-0.709-0.984-0.709h-0.63v1.338h0.669C486.562,61.322,486.876,61.113,486.876,60.693z"/>
	</g>
</g>
<g>
	<g>
		<g>
			<path fill="#C3002F" d="M169.321,45.097c0,0-16.253-14.253-15.438-23.84c0.236-2.772,1.689-4.535,3.653-5.491
				c-3.804,1.019-7.104,3.671-7.104,8.141c0,10.554,18.688,24.521,18.688,24.521s7.673-6.229,13.188-13.477
				C176.688,40.646,169.321,45.097,169.321,45.097z"/>
			<path fill="#C3002F" d="M171.037,21.576c0.455-5.35,12.457-6.472,16.336-1.433c-2.446-6.697-14.484-6.607-17.738-2.252
				C170.602,18.923,171.155,20.173,171.037,21.576z"/>
		</g>
		<path fill="#FFFFFF" d="M187.373,20.143c0.28,0.769,0.438,1.624,0.438,2.575c0,3.79-2.414,8.17-5.502,12.229
			c3.264-3.308,5.936-7.032,6.237-10.554C188.693,22.663,188.227,21.255,187.373,20.143z"/>
		<path fill="#FFFFFF" d="M168.825,20.277c0-0.896,0.296-1.694,0.811-2.386c-2.622-2.799-8.313-3.967-12.099-2.125
			C162.714,14.379,168.825,16.023,168.825,20.277z"/>
		<polygon fill="#C3002F" points="182.106,24.701 179.792,24.701 179.792,22.096 177.356,22.096 177.356,24.701 175.042,24.701 
			175.042,26.561 177.356,26.561 177.356,29.167 179.792,29.167 179.792,26.561 182.106,26.561 		"/>
	</g>
	<g>
		<g>
			<path fill="#C3002F" d="M74.117,54.475l-1.306,4.065h-0.455c-10.288-9.306-26.204-3.208-25.749,11.712
				c0.454,18.666,18.415,18.666,26.602,12.195l-0.398,3.207c-14.666,8.076-31.832,0.43-31.832-15.401
				c0-9.681,7.732-18.184,20.18-18.184C65.478,52.069,70.651,52.497,74.117,54.475z"/>
			<path fill="#C3002F" d="M117.088,62.605c3.754,9.732-0.794,21.338-11.538,24.976c-1.763,0.535-3.581,0.963-5.457,1.069
				l-6.083-0.213c-9.549-0.963-16.768-8.344-16.768-17.437c-0.228-9.196,5.969-16.846,15.405-18.825
				c2.672-0.535,5.456-0.695,8.128-0.428C107.995,52.604,114.36,56.133,117.088,62.605z M112.996,72.125
				c0.682-7.326-1.875-15.028-9.776-17.863c-1.535-0.481-3.24-0.801-4.889-0.908c-6.649,0-11.879,3.743-14.323,9.359
				c-2.444,7.541-1.875,16.098,4.548,21.553c3.694,2.674,7.9,3.315,12.448,2.674c5.114-1.121,9.095-4.76,10.857-9.357
				L112.996,72.125z"/>
			<path fill="#C3002F" d="M144.544,88.01h-20.066v-35.3h4.89v32.356h15.176V88.01z"/>
			<path fill="#0071CE" d="M191.208,88.01h-5.227l-2.729-26.58l-14.551,26.26h-0.569l-14.325-25.777l-2.556,26.1h-3.753
				l5.229-35.941h0.853l16.03,27.811l16.199-27.811h0.74L191.208,88.01z"/>
			<path fill="#0071CE" d="M196.609,52.71h5.114v35.298h-5.114V52.71z"/>
			<path fill="#0071CE" d="M234.693,77.473c0.34,5.402-4.547,9.896-10.06,10.537h-14.552v-35.3h15.858
				c4.093,0.857,7.673,3.637,7.218,8.022c-0.283,4.386-4.547,7.113-8.638,8.289C229.69,69.396,234.352,72.125,234.693,77.473z
				 M227.474,72.874c-1.763-1.392-4.321-2.515-6.536-2.405h-6.082v15.775h7.447C228.952,85.496,231.738,77.473,227.474,72.874z
				 M227.587,57.953c-1.193-2.194-3.978-3.263-6.309-3.263h-6.309v13.691h6.423C226.28,67.525,230.371,62.443,227.587,57.953z"/>
			<path fill="#0071CE" d="M261.465,88.01h-19.837V52.604h19.44v2.835h-14.779v12.622h13.414v2.516h-13.299v14.922h15.061V88.01
				L261.465,88.01z"/>
		</g>
		<g>
			<path fill="#0071CE" d="M269.354,65.695c2.126,0,3.845,1.548,3.845,3.461c0,1.912-1.719,3.459-3.845,3.459
				c-2.125,0-3.843-1.547-3.843-3.459C265.511,67.243,267.229,65.695,269.354,65.695z M269.354,72.26
				c1.902,0,3.394-1.392,3.394-3.102c0-1.711-1.492-3.104-3.394-3.104c-1.9,0-3.394,1.393-3.394,3.104
				C265.961,70.868,267.455,72.26,269.354,72.26z M267.926,68.249c0-0.435-0.033-0.948-0.075-1.306
				c0.291,0.029,0.58,0.049,0.88,0.049c0.291,0,0.581-0.049,0.872-0.049c0.749,0,1.351,0.31,1.351,0.968
				c0,0.791-0.934,1.159-1.469,1.198c0.558,0.627,1.459,1.768,1.9,2.098v0.048c-0.141-0.03-0.28-0.048-0.408-0.048
				c-0.14,0-0.279,0.02-0.418,0.048c-0.528-0.687-1.108-1.373-1.729-2.067h-0.345v0.676c0,0.465,0.022,0.929,0.066,1.393
				c-0.119-0.029-0.236-0.048-0.345-0.048c-0.118,0-0.235,0.021-0.354,0.048c0.032-0.456,0.075-0.898,0.075-1.354L267.926,68.249
				L267.926,68.249z M268.484,68.916c0.077,0.02,0.247,0.039,0.452,0.039c0.731,0,1.353-0.271,1.353-0.977
				c0-0.502-0.419-0.805-0.998-0.805c-0.269,0-0.525,0.021-0.741,0.051c-0.032,0.299-0.066,0.607-0.066,0.906V68.916z"/>
		</g>
	</g>
</g>
<g>
	<path fill="#2F348A" d="M701.004,16.966l-2.024-2.527c0,0-1.165-1.059,0.71-2.376c1.868-1.316,8.54-4.806,8.54-4.806
		s0.51-0.452,0.813,0.408c0.301,0.861,2.021,4.297,2.021,4.297s0.458,0.809-0.252,1.16c-0.707,0.356-7.432,2.934-7.432,2.934
		l-1.112-1.77c0,0-0.506-0.657,0.654-1.263c1.165-0.608,2.127-1.161,2.127-1.161s0.553-0.456,0.706-0.206
		c0.151,0.256-0.762,0.708-0.762,0.708s-0.806,0.561-0.402,1.113c0.402,0.555,1.213-0.063,1.554-0.266
		c0.168-0.108,0.721-0.494,0.721-0.494s0.403-1.994,0.204-2.428c-0.355-0.757-2.914,0.431-3.485,0.794
		c-0.642,0.406-4.356,1.13-2.836,3.052c1.52,1.919,2.02,3.184,2.02,3.184l0.103,1.164l-1.818-0.15L701.004,16.966z"/>
	<polygon fill="#BE1F2E" points="628.891,45.937 640.217,43.239 637.25,87.461 631.991,85.308 	"/>
	<path fill="#BE1F2E" d="M638.865,37.242c0,2.641-2.145,4.784-4.785,4.784c-2.646,0-4.785-2.144-4.785-4.784
		c0-2.644,2.139-4.787,4.785-4.787C636.721,32.455,638.865,34.598,638.865,37.242"/>
	<polygon fill="#BE1F2E" points="645.605,41.354 653.83,43.239 649.789,81.934 666.237,79.37 666.237,87.189 644.661,87.057 	"/>
	<polygon fill="#BE1F2E" points="658.957,50.792 670.818,47.957 671.221,87.057 676.212,87.057 676.344,47.55 688.615,47.957 
		688.615,40.943 658.684,42.698 	"/>
	<path fill="#BE1F2E" d="M710.729,52.438l6.872,0.133l-0.134,20.089c0,0-0.673,13.623-8.358,14.971c0,0-9.44,1.887-16.989,0.673
		c-7.544-1.217-8.224-10.114-8.357-13.35c-0.133-3.235-0.405-22.919-0.405-22.919l8.63,0.133l-2.429,15.234
		c0,0-5.29,17.022,10.079,16.757c5.867-0.105,14.56,1.208,12.977-16.618L710.729,52.438z"/>
	<polygon fill="#BE1F2E" points="720.569,52.305 732.196,52.409 734.426,60.193 742.409,52.305 747.871,52.305 734.927,62.719 
		746.655,87.492 736.043,87.492 731.59,69.293 722.488,87.492 717.13,87.492 728.86,62.922 	"/>
	<path fill="#BE1F2E" d="M764.453,50.587h-0.607L746.96,85.873l4.651,3.339l5.056-12.335l13.043-0.605l6.368,13.042l6.272-3.738
		L764.453,50.587z M758.79,72.528l5.462-11.43l4.751,11.43H758.79z"/>
	<polygon fill="#BE1F2E" points="824.107,86.887 817.74,89.113 810.863,64.137 803.791,84.462 802.878,84.462 793.877,64.544 
		790.946,89.72 783.967,87.696 792.659,52 793.573,51.802 804.193,74.755 809.754,52.712 811.777,52.914 	"/>
	<path fill="#BE1F2E" d="M821.134,66.305v-4.623h1.696c0.427,0,0.738,0.04,0.934,0.126c0.193,0.082,0.351,0.233,0.462,0.442
		c0.121,0.214,0.179,0.458,0.179,0.729c0,0.347-0.089,0.633-0.263,0.859c-0.182,0.225-0.444,0.37-0.795,0.426
		c0.173,0.119,0.316,0.25,0.433,0.387c0.111,0.145,0.267,0.395,0.457,0.752l0.492,0.902h-0.969l-0.581-1.006
		c-0.208-0.357-0.353-0.585-0.427-0.679s-0.156-0.159-0.242-0.195c-0.086-0.033-0.221-0.05-0.406-0.05h-0.163v1.93H821.134z
		 M821.94,63.637h0.594c0.389,0,0.627-0.02,0.73-0.056c0.092-0.036,0.169-0.101,0.225-0.195c0.054-0.096,0.082-0.208,0.082-0.347
		c0-0.16-0.038-0.282-0.111-0.375c-0.065-0.098-0.175-0.158-0.299-0.181c-0.069-0.013-0.266-0.016-0.59-0.016h-0.631V63.637z"/>
	<path fill="#BE1F2E" d="M822.933,68.241c-2.329,0-4.211-1.904-4.211-4.247s1.882-4.247,4.211-4.247
		c2.316,0,4.209,1.904,4.209,4.247S825.249,68.241,822.933,68.241 M822.933,60.354c-1.99,0-3.611,1.628-3.611,3.641
		c0,2.005,1.621,3.642,3.611,3.642c1.982,0,3.605-1.637,3.605-3.642C826.538,61.981,824.915,60.354,822.933,60.354"/>
	<path fill="#2F348A" d="M693.672,40.478c0,0,3.639,0.602,4.447,0c0.81-0.611,3.737-0.205,3.737-0.205l2.127-3.438l-4.853-0.206
		c0,0-1.619,1.111-1.82-2.831l-0.908-3.939l-3.236-0.104L693.672,40.478z"/>
	<path fill="#2F348A" d="M704.693,7.512l-7.885,4.955c0,0-0.103,0.913,0.304,1.214c0.399,0.299,1.512,2.12,1.512,2.12l-5.362,11.433
		l-1.306-18.608L704.693,7.512z"/>
	<path fill="#2F348A" d="M708.029,25.004l-0.811,10.114l-7.28,0.503c0,0-0.808,0.507-1.108-0.705
		c-0.305-1.215-0.81-5.057-0.81-5.057s0.201-1.417-1.818-1.217h-2.124l1.617-3.434C695.695,25.209,704.693,30.766,708.029,25.004"/>
	<path fill="#2F348A" d="M694.784,55.442c0,0,3.641-4.553,8.292-3.339c0,0,1.814,0.403,2.023-0.708
		c0.201-1.11-2.023-1.315-2.023-1.315s-8.292-3.537-8.596-4.042L694.784,55.442z"/>
	<path fill="#2F348A" d="M697.614,20.957c0,0,7.687-1.718,10.722,0.306l0.707-6.269L705.1,17.32c0,0-1.42,1.517-2.332,0
		l-2.524-0.708C700.243,16.613,698.83,17.12,697.614,20.957"/>
	<path fill="#2F348A" d="M704.342,26.117c0,0,1.506,0.015,1.844-0.376c0.307-0.357,1.896-2.052,1.896-2.655
		c0-0.61-0.455-0.71-0.455-0.71s-1.134-0.361-1.618-0.453c-0.529-0.101-1.421-0.152-1.314,0.298
		C704.793,22.678,705.858,23.185,704.342,26.117"/>
	<path fill="#2F348A" d="M702.823,25.865c0,0-1.113-0.554-1.113-2.023c0-1.467,0.81-1.975,0.81-1.975s0.958-0.402,1.268,0.562
		c0.3,0.958,0.424,1.437,0.073,2.249C703.502,25.486,702.823,25.865,702.823,25.865"/>
	<path fill="#2F348A" d="M701.103,26.018c0,0-1.01-2.833-0.051-3.844c0,0,0-0.307-0.453-0.251c-0.455,0.049-3.486,0.958-3.894,1.667
		c0,0,0.558,1.112,1.72,1.519C698.425,25.108,700.344,26.018,701.103,26.018"/>
	<path fill="#BE1F2E" d="M705.399,48.87c0,0,1.521-6.824,3.138-8.949c1.615-2.126-1.42-3.946-3.033-1.669
		c-1.62,2.273-2.33,3.538-2.33,3.538s-4.918-0.198-6.519,0.104c-0.851,0.155-3.283,1.211-1.819,2.928
		c1.465,1.722,5.864,2.482,5.864,2.482S705.199,49.172,705.399,48.87"/>
	<path fill="#F18A3E" d="M704.038,53.416c0,0-5.666-1.565-7.588,3.187c0,0-0.755,3.591,3.894,4.956l4.547,2.225
		c0,0,2.385,1.315,2.179-1.619c-0.204-2.932,0-2.777,0-2.777s-3.39-0.258-3.437-1.57c-0.049-1.315,2.576-1.769,2.576-1.769
		L704.038,53.416z"/>
</g>
</svg>
