<?xml version="1.0" encoding="utf-8"?>
<!-- Generator: Adobe Illustrator 16.0.0, SVG Export Plug-In . SVG Version: 6.00 Build 0)  -->
<!DOCTYPE svg PUBLIC "-//W3C//DTD SVG 1.1//EN" "http://www.w3.org/Graphics/SVG/1.1/DTD/svg11.dtd">
<svg version="1.1" id="Capa_1" xmlns="http://www.w3.org/2000/svg" xmlns:xlink="http://www.w3.org/1999/xlink" x="0px" y="0px"
	 width="857px" height="115px" viewBox="0 0 857 115" enable-background="new 0 0 857 115" xml:space="preserve">
<g>
	<polygon fill="#2E3191" points="445.034,63.832 434.742,59.477 431.421,10.162 449.982,8.679 	"/>
	<path fill="#00A551" d="M446.381,23.697c0.146,0.297,0.645,0.385,1.092,0.255c-0.097,0.19,0.904,0.122,1.092,0.447
		c-1.064,1.554-1.62,3.863-4.366,3.83c0.801-1.02,1.606-3.557,0.389-4.532C445.126,23.373,445.931,23.965,446.381,23.697"/>
	<path fill="#00A551" d="M443.872,24.002c-0.023,0.688,0.325,1.193,0.312,2.042c-0.421,0.609-0.676,1.248-1.324,1.787
		c-0.323-0.341-0.8-0.564-1.093-0.638c-0.487-1.186-0.139-2.702,0.779-3.511c0.412-0.072,1.066-0.044,1.092,0.383
		C443.7,24.033,443.765,24,443.872,24.002"/>
	<polygon fill="#5185C4" points="437.803,14.184 448.986,7.755 452.448,14.292 443.395,18.978 439.533,18.215 	"/>
	<path fill="#FFFFFF" d="M452.605,15.195c-0.052,0.022-0.247,0.417-0.623,0.127c-0.169,0.054-0.126,0.281-0.234,0.383
		c-0.667,0.177-1.255,0.379-1.951,0.702c0.016-0.052,0.079-0.063,0.079-0.128c-0.666,0.208-1.405,1.137-2.573,1.149
		c-0.031,0.153,0.354-0.036,0.233,0.192c-0.815,0.023-1.252,0.929-2.105,0.957c-0.111,0.308-0.819,0.8-1.248,0.831
		c-0.166,0.891-1.73,0.109-1.248-0.383c-0.012-0.118-0.264-0.04-0.312-0.128c-0.496-1.508-1.77-2.381-2.417-3.766
		c0.279-0.452,1.06-0.833,1.56-0.894c0.492-0.427,1.427-0.831,2.027-0.957c0.767-0.57,1.896-1.165,3.197-1.085
		c0.219,0.737-0.104,1.633-0.313,2.361c-0.727-0.063-1.081,0.56-1.638,0.83c-0.432-0.111-0.399-0.42-0.546-0.638
		c0.22-0.641,1.676-0.569,1.326-1.468c-0.875,0.132-1.183,0.663-1.794,0.766c-0.539,0.644-1.717,0.765-2.339,1.339
		c0.531,0.899,1.362,1.694,1.714,2.554c2.604-1.188,5.729-1.949,8.032-3.383c0.06-0.464-0.004-0.79-0.313-1.085
		c0.02-0.08,0.155-0.064,0.157,0c-0.938-1.252-1.558-3.497-2.497-4.915c-0.167,0.051-0.436,0.155-0.545,0.064
		c-0.036,0.086-0.044,0.163-0.156,0.319c-2.271,0.95-4.302,2.096-6.083,3.447c-1.483,0.594-2.447,1.614-3.665,2.425
		c0.042,1.305,1.335,2.05,1.482,2.872c0.243,0.066,0.321,0.447,0.232,0.639c-0.128,0.271-0.729,0.365-1.014,0.638
		c-0.171,0.164-0.431,0.636-0.546,0.894c-0.45,0.993-0.927,2.286-1.248,3.255c1.272-0.257,2.018-0.52,2.729-0.702
		c0.112,0.015,0.026,0.191,0.155,0.191c0.082-0.479,1.212-0.438,1.481-0.255c0.072-0.046,0.118-0.115,0.156-0.191
		c1.697,0.061,3.612,0.059,4.756,0.511c1.531,0.236,2.968,0.549,3.666,1.468c-1.438,1.661-2.461,4.531-5.304,5.041
		c-0.646,0.453-1.113,0.452-2.104,0.128c-0.146,0.01-0.05,0.216-0.157,0.255c-0.283-0.323-0.526,0.134-0.779-0.128
		c0.012-0.075,0.144-0.054,0.233-0.064c-0.246-0.076-0.562-0.051-0.78,0.064c-1.674-0.523-2.657-1.064-4.055-1.404
		c-0.162-0.036-0.165-0.1-0.077-0.191c-0.506-0.076-1.211-0.481-1.561-0.894c-0.988,0.934-1.514,2.25-2.026,3.574
		c1.071,0.394,3.061-0.215,4.055,0.639c-0.084,0.446,0.303,0.455,0.389,0.893c0.044,0.142-0.147,0.091-0.154,0.192
		c0.583,1.512,0.703,3.3,1.014,5.296c-0.309-0.162,0.012,0.166,0.078,0.256c2.231,0.01,4.334-0.027,5.926-0.063
		c0.149-0.003,0.485,0.008,0.546,0.127c0.141-0.249,1.182-0.29,1.561-0.064c0.085-0.016,0.052-0.127,0.155-0.127
		c0.241,0.148,0.153,0.04,0.469,0c1.126-0.142,2.333,0.523,3.354,0.83c0.085,1.021,0.041,2.428-0.624,3.127
		c0.135,0.505-0.492,1.232-0.781,1.787c0.007,0.343-0.067,0.895-0.311,0.83c-0.034,1.265-0.881,2.531-1.249,3.894
		c-0.122,0.456-0.073,0.954-0.233,1.404c-0.053,0.152-0.259,0.228-0.312,0.383c-0.131,0.378,0.047,0.867-0.313,1.149
		c-0.218,1.221-0.688,2.361-1.013,3.511c-0.01,0.031-0.077-0.108-0.079-0.128c0.023,0.253-0.112,0.851-0.312,1.022
		c0.274,0.164,0.331,0.532,0.232,0.702c0.493,0.036,0.13,0.407,0.546,0.446c-0.001,0.219-0.202-0.009-0.233,0.256
		c0.046,0.154,0.295,0.142,0.468,0.191c-0.002,0.062-0.095,0.05-0.155,0.064c0.517,0.542,0.904,1.52,0.466,2.299
		c-0.548,0.19-0.692,0.707-1.092,1.02c0.814,0.334,2.027,0.342,2.652,0.83c0.018,0.914,0.148,2.059,0.078,2.873
		c-0.097,1.102-0.243,2.459-1.17,3.318c0.028,0.32-0.048,0.557-0.155,0.766c-1.234-0.012-1.849-0.852-2.729-0.639
		c-0.058-0.174,0.155-0.129,0.157-0.255c-1.068,0.214-1.008-0.446-2.027-0.638c-0.233-0.458-1.113-0.404-1.405-0.958
		c-2.704-0.972-5.302-2.95-6.862-4.915c-0.211-0.266-0.55-0.469-0.624-0.766c-0.118-0.474,0.28-0.934,0.156-1.404
		c1.097-1.313,2.307-2.537,3.821-3.51c0.114,0.033,0.195,0.095,0.313,0.128c0.233-0.042-0.076-0.137,0-0.255
		c0.161-0.001,0.266-0.03,0.622-0.127c0.121-0.033,0.004-0.151,0.079-0.191c0.04-0.021,2.066-0.461,1.638-0.256
		c0.907-0.145,1.826-0.254,2.573,0.128c0.241-0.16,1.292,0.101,1.793,0.19c0.369-0.336,0.44-0.916,0.546-1.467
		c-1.465-0.722-3.103-1.431-4.522-2.17c-0.315,0.228-0.566-0.255-0.937-0.127c-0.279-0.545-1.333-0.563-2.184-1.022
		c0.02-0.069,0.155-0.043,0.155-0.128c0.034-0.104-0.29,0.006-0.312,0.064c-0.135-0.283-0.478-0.186-0.858-0.319
		c-0.405-0.141-0.697-0.518-1.092-0.701c-0.061-0.028-0.297,0.034-0.389,0c-0.212-0.081-0.577-0.309-0.702-0.383
		c-0.142-0.085-0.429-0.34-0.311-0.383c-0.053-0.192-0.167,0.061-0.313,0c-0.535-0.796-1.779-1.011-2.417-1.723
		c0.22-0.158,0.352-0.486,0.624-0.255c0.078-0.213-0.108-0.209-0.313-0.192c0.457-1.064,0.527-1.923,1.326-2.745
		c0.776-0.187,1.541-0.126,2.185-0.318c0.041,0.051,0.081,0.103,0.077,0.19c0.365-0.036,1.724-0.083,2.105,0
		c0.177-0.036-0.094-0.098,0.079-0.19c1.632-0.363,3.125-0.11,4.366-0.383c0.873-1.122,1.771-2.397,2.34-3.574
		c-1.503-0.264-4.45-0.221-5.927-0.192c-0.237-0.146-0.452-0.311-0.702-0.447c-0.255-2.489-0.589-4.254-1.248-6.383
		c-1.915-0.107-3.303,0.221-4.679-0.319c1.354-2.586,3.044-5.412,4.055-8.489c0.063,0.012,0.078,0.064,0.157,0.064
		c0.093-0.523,0.232-1.152,0.7-1.66c-0.152-0.075,0.644-1.417,1.015-2.234c0.153-0.336,0.827-1.219,0.856-1.468
		c0.105-0.862-2.009-2.225-1.948-3.575c0.688-0.213,0.853-0.785,1.481-0.83c0.013-0.074-0.018-0.113-0.079-0.127
		c0.32-0.039,0.538-0.421,0.779-0.319c2.743-2.029,6.302-3.522,8.813-5.553c0.091,0.011,0.065,0.117,0.077,0.191
		c0.292-0.221,0.18-0.499,0.469-0.893c0.291,0.039,0.302,0.306,0.701,0.256c1.693,1.746,2.398,3.573,3.666,5.296
		c1.052,0.057,1.467-0.412,2.417-0.127c-0.001,0.151,0.135,0.188,0.078,0.383c-0.114,0.033-0.196,0.094-0.313,0.127
		c-0.169,0.011-0.248-0.052-0.233-0.192c-0.25,0.41-1.212,0.055-1.716,0.447c0.014,0.201,0.056,0.381,0.313,0.383
		c-0.271,0.547,0.568,0.85,0.545,1.659c-0.211,0.193-0.625-0.085-0.469,0.255C452.909,15.11,452.719,15.384,452.605,15.195
		 M444.496,23.684c1.217,0.975,0.411,3.511-0.39,4.531c2.745,0.035,3.302-2.275,4.365-3.829c-0.188-0.325-1.188-0.256-1.091-0.447
		c-0.449,0.13-0.946,0.042-1.092-0.255C445.838,23.951,445.034,23.359,444.496,23.684 M440.908,27.577
		c0.011-0.281-0.165-0.57-0.234-0.83c-0.117-0.439,0.052-0.801,0-1.212c-0.004-0.034-0.161,0.004-0.155-0.128
		c0.03-0.739,0.497-1.212,0.624-1.786c-1.785,0.129-3.359,0.823-4.601,1.596c0.064,0.18-0.11,0.165-0.079,0.319
		c0.131,0.014,0.914,0.651,0.624,0.958c0.936,0.261,1.54,0.971,2.34,1.148c-0.012,0.076-0.139,0.145,0,0.192
		c0.474-0.361,1.182,0.161,1.793,0.191C441.066,27.819,441.093,27.434,440.908,27.577 M443.638,24.066
		c-0.026-0.427-0.68-0.455-1.092-0.383c-0.919,0.807-1.267,2.325-0.779,3.51c0.293,0.074,0.768,0.297,1.092,0.638
		c0.648-0.539,0.903-1.178,1.324-1.787c0.014-0.85-0.335-1.355-0.312-2.043C443.765,24,443.7,24.033,443.638,24.066 M436.775,26.683
		c-0.01-0.114,0.077-0.15,0.233-0.128v-0.191c-0.252-0.079-0.059,0.207-0.313,0.128C436.62,26.158,436.616,26.667,436.775,26.683
		 M439.427,43.979c-1.466,0.112-3.287,0.009-4.21,0.702c0.026-0.022-0.391,0.419-0.391,0.767c-0.767-0.015-0.391,1.118-0.702,1.276
		c1.963,1.457,4.443,2.491,7.565,3c0.034,0.17,0.502,0.155,0.311,0.319c0.153,0.019,0.155-0.086,0.234-0.128
		c1.069,0.761,1.938,0.989,3.274,1.468c0.151-0.238,0.187-0.57,0.157-0.958c0.112-0.098,0.103-0.297,0.234-0.382
		c-0.056-1.416,0.809-2.681,1.247-3.957c0.252-0.733,0.267-1.488,0.936-1.979c0.083-1.182,1.448-2.775,0.857-4.213
		c-0.666-0.139-0.897-0.481-1.56-0.511c-0.745-0.032-0.93,0.289-1.405,0.703c-0.466,0.407-1.041,0.919-1.324,1.339
		c-0.322,0.479-0.392,1.178-0.937,1.34c0.004,0.344-0.335,0.96-0.702,1.213C441.878,43.891,440.609,43.889,439.427,43.979
		 M444.105,61.021c0.259-0.326-0.474-0.088-0.391-0.446c0.222-1.074,1.657-1.155,2.496-1.724c0.222-0.768-0.358-1.076-0.78-1.724
		c-0.584-0.896-1.021-1.613-1.872-1.787c-0.247-0.01-0.26,0.17-0.546,0.128c-0.981-0.125-1.69-0.143-2.573,0.063
		c-1.415,0.331-2.58,1.628-3.274,1.787c0.115,0.012,0.071,0.154,0.077,0.255c-1.508,0.993-0.979,3.42-0.234,4.405
		c0.119-0.188,0.631,0.608,0.313,0.383c0.262,0.332,0.694,0.615,1.014,0.83c0.566,0.384,1.392,0.822,2.184,1.211
		c1.312,0.65,2.998,1.377,4.134,1.916c1.021,0.484,1.528,0.843,2.339,0.064c0.36-1.175,0.445-2.752,0.313-3.83
		c-0.034-0.271,0.046-0.477-0.079-0.639c-0.211-0.277-0.551-0.198-0.856-0.318c-0.115-0.045-0.229-0.229-0.392-0.255
		c-0.16-0.026-0.545,0.166-1.014,0.063c-0.229-0.051-0.414-0.346-0.7-0.319C444.52,60.887,444.416,60.955,444.105,61.021"/>
	<path fill="#00A551" d="M441.22,28.023c-0.611-0.031-1.319-0.553-1.794-0.191c-0.138-0.046-0.011-0.117,0-0.192
		c-0.8-0.177-1.403-0.887-2.339-1.148c0.291-0.306-0.493-0.943-0.624-0.957c-0.032-0.154,0.144-0.139,0.079-0.319
		c1.24-0.772,2.815-1.466,4.601-1.596c-0.127,0.574-0.594,1.047-0.624,1.787c-0.006,0.132,0.151,0.094,0.155,0.128
		c0.052,0.41-0.117,0.772,0,1.212c0.07,0.26,0.246,0.549,0.234,0.831C441.093,27.434,441.066,27.819,441.22,28.023"/>
	<path fill="#FFFFFF" d="M436.697,20.43c0.253,0.1,0.061-0.261,0.312-0.162v0.243c-0.156-0.027-0.244,0.017-0.233,0.163
		C436.616,20.651,436.619,20.007,436.697,20.43"/>
	<path fill="#BE1E2D" d="M443.014,43.979c0.367-0.253,0.706-0.869,0.703-1.212c0.544-0.163,0.613-0.863,0.936-1.34
		c0.282-0.42,0.858-0.933,1.324-1.34c0.476-0.415,0.66-0.735,1.405-0.703c0.662,0.029,0.895,0.373,1.56,0.512
		c0.591,1.437-0.774,3.032-0.857,4.212c-0.669,0.491-0.684,1.246-0.936,1.979c-0.438,1.276-1.302,2.542-1.248,3.957
		c-0.13,0.085-0.121,0.284-0.233,0.382c0.029,0.388-0.005,0.719-0.156,0.958c-1.338-0.479-2.205-0.708-3.275-1.467
		c-0.079,0.041-0.081,0.146-0.234,0.127c0.191-0.164-0.275-0.149-0.311-0.319c-3.122-0.51-5.603-1.543-7.565-3
		c0.312-0.158-0.064-1.292,0.702-1.276c0-0.348,0.417-0.788,0.391-0.766c0.924-0.693,2.745-0.59,4.21-0.702
		C440.609,43.89,441.878,43.891,443.014,43.979"/>
	<path fill="#F58C3D" d="M444.261,61.084c0.287-0.025,0.474,0.27,0.703,0.318c0.467,0.104,0.852-0.09,1.012-0.063
		c0.164,0.027,0.276,0.21,0.392,0.256c0.306,0.12,0.645,0.041,0.856,0.317c0.125,0.163,0.045,0.366,0.079,0.64
		c0.133,1.076,0.048,2.653-0.313,3.829c-0.812,0.778-1.318,0.421-2.34-0.065c-1.136-0.537-2.822-1.264-4.133-1.914
		c-0.792-0.391-1.617-0.83-2.184-1.213c-0.318-0.215-0.752-0.496-1.014-0.83c0.318,0.227-0.194-0.57-0.313-0.383
		c-0.746-0.983-1.273-3.41,0.234-4.404c-0.006-0.102,0.038-0.244-0.078-0.255c0.694-0.159,1.86-1.456,3.273-1.787
		c0.884-0.206,1.593-0.188,2.574-0.063c0.286,0.041,0.3-0.138,0.546-0.128c0.852,0.174,1.287,0.891,1.872,1.787
		c0.422,0.648,1.001,0.957,0.78,1.725c-0.839,0.568-2.273,0.649-2.496,1.724c-0.083,0.358,0.648,0.12,0.39,0.446
		C444.415,60.954,444.52,60.887,444.261,61.084"/>
	<polygon fill="#BE1E2D" points="405.894,82.555 405.953,90.816 383.183,90.816 384.237,43.677 392.831,45.642 388.669,85.516 	"/>
	<polygon fill="#BE1E2D" points="410.312,90.77 410.312,50.647 397.667,53.659 397.667,45.346 428.469,43.268 428.469,50.647 
		415.799,50.647 415.799,90.77 	"/>
	<path fill="#BE1E2D" d="M423.093,54.944h8.927l-3.438,19.303c0,4.181,0.305,7.028,0.914,8.542s1.546,2.671,2.811,3.468
		c1.265,0.8,2.664,1.197,4.202,1.197c1.626,0,10.798-0.429,12.08-1.287c1.281-0.858,2.815-2.201,3.417-4.028
		c0.602-1.828,0.901-5.275,0.901-10.345l-1.901-16.85h6.964v19.121c0,4.506-0.583,8.023-1.75,10.558
		c-1.166,2.534-2.694,4.442-4.586,5.726c-1.891,1.281-12.581,1.924-15.442,1.924c-2.635,0-4.958-0.561-6.973-1.682
		s-3.539-2.796-4.573-5.027c-1.033-2.231-1.551-6.267-1.551-12.103L423.093,54.944L423.093,54.944z"/>
	<polygon fill="#BE1E2D" points="463.068,90.816 457.341,90.816 469.694,65.615 460.91,54.499 472.991,54.499 475.225,62.785 
		483.468,54.499 489.221,54.499 475.685,65.16 488.145,90.816 476.95,90.816 472.532,71.582 	"/>
	<g>
		<path fill="#2E3191" d="M424.771,100.391c0,2.444-1.692,3.51-3.289,3.51c-1.789,0-3.168-1.312-3.168-3.399
			c0-2.212,1.447-3.509,3.276-3.509C423.488,96.992,424.771,98.371,424.771,100.391z M419.528,100.459
			c0,1.447,0.833,2.54,2.007,2.54c1.146,0,2.007-1.079,2.007-2.567c0-1.119-0.56-2.539-1.98-2.539
			C420.143,97.893,419.528,99.203,419.528,100.459z"/>
		<path fill="#2E3191" d="M426.699,94.057h1.202v9.693h-1.202V94.057z"/>
		<path fill="#2E3191" d="M430.317,98.93c0-0.683-0.015-1.242-0.055-1.789h1.052l0.054,1.065h0.042
			c0.369-0.628,0.982-1.215,2.075-1.215c0.9,0,1.584,0.546,1.869,1.323h0.028c0.205-0.369,0.464-0.655,0.737-0.859
			c0.396-0.301,0.833-0.464,1.461-0.464c0.874,0,2.171,0.573,2.171,2.866v3.892h-1.174v-3.741c0-1.27-0.465-2.033-1.435-2.033
			c-0.683,0-1.215,0.504-1.42,1.092c-0.054,0.164-0.095,0.381-0.095,0.601v4.083h-1.175v-3.959c0-1.051-0.464-1.816-1.379-1.816
			c-0.751,0-1.297,0.602-1.488,1.203c-0.068,0.176-0.096,0.381-0.096,0.586v3.987h-1.174V98.93L430.317,98.93z"/>
		<path fill="#2E3191" d="M442.786,100.665c0.028,1.625,1.064,2.293,2.266,2.293c0.86,0,1.38-0.149,1.83-0.341l0.205,0.859
			c-0.423,0.191-1.146,0.41-2.198,0.41c-2.034,0-3.25-1.339-3.25-3.332c0-1.994,1.175-3.563,3.101-3.563
			c2.156,0,2.729,1.896,2.729,3.113c0,0.246-0.026,0.437-0.041,0.56H442.786z M446.309,99.805c0.015-0.766-0.313-1.953-1.666-1.953
			c-1.215,0-1.747,1.119-1.843,1.953H446.309z"/>
		<path fill="#2E3191" d="M449.191,102.521c0.354,0.231,0.982,0.478,1.583,0.478c0.874,0,1.283-0.437,1.283-0.983
			c0-0.572-0.341-0.887-1.229-1.215c-1.188-0.423-1.748-1.078-1.748-1.871c0-1.064,0.86-1.938,2.28-1.938
			c0.668,0,1.256,0.191,1.625,0.408l-0.3,0.875c-0.261-0.164-0.738-0.383-1.353-0.383c-0.71,0-1.105,0.41-1.105,0.901
			c0,0.546,0.396,0.792,1.256,1.12c1.146,0.438,1.733,1.01,1.733,1.992c0,1.162-0.9,1.98-2.472,1.98
			c-0.724,0-1.392-0.178-1.857-0.451L449.191,102.521z"/>
		<path fill="#2E3191" d="M458.832,103.75l-0.095-0.833h-0.042c-0.369,0.519-1.078,0.983-2.021,0.983
			c-1.338,0-2.021-0.942-2.021-1.897c0-1.599,1.42-2.472,3.973-2.458v-0.137c0-0.547-0.151-1.529-1.502-1.529
			c-0.614,0-1.256,0.191-1.72,0.492l-0.273-0.792c0.546-0.354,1.337-0.587,2.17-0.587c2.021,0,2.513,1.379,2.513,2.703v2.471
			c0,0.574,0.026,1.133,0.108,1.584H458.832z M458.654,100.377c-1.312-0.027-2.8,0.205-2.8,1.488c0,0.777,0.521,1.146,1.135,1.146
			c0.858,0,1.405-0.546,1.597-1.105c0.042-0.123,0.069-0.26,0.069-0.383L458.654,100.377L458.654,100.377z"/>
		<path fill="#2E3191" d="M462.165,99.203c0-0.778-0.014-1.447-0.054-2.063h1.051l0.041,1.297h0.055
			c0.3-0.888,1.024-1.446,1.829-1.446c0.137,0,0.232,0.014,0.341,0.04v1.135c-0.123-0.027-0.246-0.041-0.409-0.041
			c-0.847,0-1.447,0.643-1.61,1.542c-0.027,0.164-0.056,0.354-0.056,0.56v3.522h-1.188V99.203L462.165,99.203z"/>
		<path fill="#2E3191" d="M468.488,95.244v1.896h1.72v0.916h-1.72v3.563c0,0.818,0.23,1.283,0.9,1.283
			c0.314,0,0.546-0.041,0.696-0.082l0.055,0.9c-0.231,0.096-0.601,0.164-1.064,0.164c-0.561,0-1.011-0.177-1.297-0.505
			c-0.343-0.354-0.464-0.942-0.464-1.72v-3.604h-1.024v-0.916h1.024v-1.582L468.488,95.244z"/>
		<path fill="#2E3191" d="M475.629,103.75l-0.095-0.833h-0.042c-0.369,0.519-1.078,0.983-2.021,0.983
			c-1.338,0-2.021-0.942-2.021-1.897c0-1.599,1.419-2.472,3.973-2.458v-0.137c0-0.547-0.15-1.529-1.502-1.529
			c-0.614,0-1.256,0.191-1.72,0.492l-0.273-0.792c0.546-0.354,1.337-0.587,2.17-0.587c2.021,0,2.513,1.379,2.513,2.703v2.471
			c0,0.574,0.026,1.133,0.108,1.584H475.629z M475.453,100.377c-1.312-0.027-2.799,0.205-2.799,1.488
			c0,0.777,0.519,1.146,1.134,1.146c0.859,0,1.406-0.546,1.597-1.105c0.042-0.123,0.069-0.26,0.069-0.383L475.453,100.377
			L475.453,100.377z"/>
		<path fill="#2E3191" d="M478.95,98.93c0-0.683-0.015-1.242-0.055-1.789h1.064l0.068,1.092h0.026
			c0.327-0.627,1.093-1.241,2.185-1.241c0.915,0,2.335,0.546,2.335,2.813v3.945h-1.202v-3.811c0-1.064-0.396-1.951-1.529-1.951
			c-0.792,0-1.406,0.56-1.61,1.229c-0.056,0.15-0.082,0.355-0.082,0.561v3.973h-1.202v-4.82H478.95z"/>
	</g>
	<polygon fill="#BE1E2D" points="378.777,45.623 375.819,91.372 370.407,88.628 366.869,48.479 	"/>
	<path fill="#BE1E2D" d="M377.365,39.814c0,2.808-2.277,5.084-5.086,5.084s-5.085-2.276-5.085-5.084s2.276-5.085,5.085-5.085
		C375.087,34.729,377.365,37.006,377.365,39.814"/>
	<g>
		<path fill="#BE1E2D" d="M490.301,65.6c0,1.207-0.427,2.229-1.278,3.069c-0.854,0.84-1.896,1.261-3.13,1.261
			c-1.128,0-2.118-0.434-2.972-1.3c-0.853-0.866-1.279-1.901-1.279-3.108c0-1.104,0.427-2.086,1.279-2.953
			c0.854-0.865,1.87-1.299,3.051-1.299s2.197,0.428,3.051,1.279C489.875,63.4,490.301,64.417,490.301,65.6z M489.671,65.6
			c0-1.023-0.361-1.89-1.083-2.599c-0.722-0.708-1.594-1.063-2.617-1.063s-1.889,0.361-2.598,1.082
			c-0.708,0.723-1.063,1.582-1.063,2.578c0,0.998,0.36,1.857,1.083,2.578c0.722,0.723,1.58,1.082,2.578,1.082
			c0.996,0,1.863-0.354,2.599-1.063C489.304,67.488,489.671,66.622,489.671,65.6z M487.9,67.921l-1.053-0.006l-0.906-1.888
			l-0.68,0.004v1.89h-1.022v-4.646h1.691c1.313,0,1.969,0.447,1.969,1.338c0,0.656-0.329,1.076-0.984,1.26L487.9,67.921z
			 M486.876,64.693c0-0.473-0.329-0.709-0.984-0.709h-0.63v1.338h0.669C486.562,65.322,486.876,65.113,486.876,64.693z"/>
	</g>
</g>
<g>
	<g>
		<path fill="#1D1D1B" d="M614.655,48.265c2.268,0.095,3.353,0.192,6.853,0.188c0.296,0,0.542,0.048,0.642,0.147
			c0.196,0.147,0.443,0.542,0.593,0.886c0.346,0.641,2.074,2.907,3.259,3.989c2.961,3.003,10.167,10.142,19.99,19.396
			c0.047-1.577,0.091-6.014,0.086-9.662c-0.007-5.126-0.06-7.789-0.259-10.302c-0.101-0.838-0.2-2.07-1.285-2.414
			c-0.543-0.197-1.874-0.342-2.909-0.44c-0.148-0.049-0.247-0.098-0.247-0.246l-0.1-1.38c1.874-0.002,3.747-0.004,5.569-0.007
			c1.924-0.002,3.895-0.153,5.423-0.204c0.247,0,0.395,0.099,0.443,0.247l0.297,1.035c-1.773,0.397-2.464,0.595-3.252,1.088
			c-0.936,0.544-1.229,2.121-1.467,8.826c-0.093,4.438-0.138,7.641-0.13,14.247c0.005,3.155,0.156,6.063,0.157,6.901
			c-0.05,0.295-0.345,0.543-0.984,0.789c-0.247,0.101-0.444,0.101-0.69-0.244c-2.914-4.285-7.505-8.914-12.688-14.033
			c-4.097-4.086-7.997-7.926-12.043-11.962c-0.146,2.76-0.239,6.26-0.235,9.021c0.005,4.487,0.015,11.141,0.608,13.014
			c0.396,1.133,1.925,1.525,3.947,1.918l0.346,1.182c0.049,0.148-0.246,0.395-0.395,0.395c-2.069,0.004-4.238-0.191-6.26-0.188
			c-1.726,0.003-3.204,0.151-4.042,0.153c-0.1-0.494-0.248-0.985-0.396-1.379c3.104-0.843,3.301-1.336,3.545-2.963
			c0.146-1.232,0.584-5.769,0.575-12.719L619.6,58.07c-0.006-5.077-0.105-5.916-0.896-6.653c-0.79-0.836-1.579-1.279-3.649-1.523
			c-0.296-0.098-0.395-0.147-0.395-0.345L614.655,48.265z"/>
		<path fill="#1D1D1B" d="M670.901,47.501c0.345,0,0.442,0.246,0.592,0.739c1.484,4.779,2.522,7.243,4.255,11.875
			c1.583,4.385,5.588,13.697,6.231,15.224c1.037,2.315,1.729,3.202,4.541,3.741c0.098,0-0.196,1.33-0.394,1.479
			c-4.091-0.043-5.077-0.041-6.705-0.041c-1.578,0.004-2.957,0.203-3.401,0.153c-0.196,0-0.296-0.05-0.345-0.147
			c-0.099-0.295-0.297-1.183-0.248-1.28c2.514-0.694,2.858-1.039,2.265-2.962c-0.248-0.985-1.831-4.977-2.475-6.553
			c-0.147-0.345-0.443-0.74-0.838-0.738c-3.549,0.005-7.74,0.059-10.647,0.211c-0.592,0.05-0.837,0.199-1.231,1.037
			c-0.492,1.035-2.112,5.277-2.111,6.607c0.001,1.086,0.397,1.479,2.862,2.217c0.049,0.295-0.196,1.231-0.393,1.379
			c-2.416-0.045-5.227-0.041-6.262-0.041c-0.838,0-1.626,0.052-1.823,0.002c-0.247,0-0.297-0.049-0.347-0.146
			c-0.196-0.296-0.347-1.232-0.249-1.381c2.12-0.596,2.611-1.68,3.939-4.195c1.376-2.713,6.979-16.572,9.829-23.377
			c0.54-1.332,0.834-2.17,1.13-2.959c0.048-0.247,0.099-0.296,0.295-0.396c0.197-0.099,1.034-0.445,1.478-0.446L670.901,47.501
			L670.901,47.501z M664.913,66.934c0.295-0.002,1.331,0.096,3.549,0.092c2.316-0.002,3.697-0.053,5.028-0.104
			c0.345,0,0.492-0.443,0.394-0.689c-1.93-5.223-2.919-8.131-4.453-12.072c-0.099-0.197-0.442-0.098-0.591,0.198
			c-2.31,5.376-2.948,7.003-4.864,12.035c-0.049,0.197,0.247,0.543,0.889,0.543h0.049V66.934z"/>
		<path fill="#1D1D1B" d="M728.58,49.645c-4.437,0.4-4.878,0.746-5.024,1.683c-0.196,0.888-0.342,2.761-0.335,8.529l0.014,9.857
			c0.003,2.958,0.104,5.424,0.254,7.098c0.102,1.232,0.495,1.43,1.234,1.578c0.492,0.098,2.12,0.244,2.563,0.342
			c0.345,0.099,0.542,0.147,0.542,0.295c0.001,0.344-0.294,1.232-0.394,1.381c-3.991-0.094-6.014-0.141-7.838-0.09
			c-2.168,0.004-4.682,0.156-4.83,0.205c-0.295,0-0.542-0.196-0.592-0.394c-0.147-0.493-0.247-0.937-0.198-1.233
			c3.5-0.103,4.584-0.351,4.779-1.681c0.048-0.79,0.293-2.515,0.285-8.036l-0.015-11.782c-0.01-6.458-0.061-6.951-1.735-7.293
			c-0.543-0.049-1.282-0.146-2.663-0.194c-0.197,0-0.296-0.148-0.296-0.295c0-0.148,0.048-0.346,0.245-0.74
			c0.197-0.346,0.247-0.443,0.394-0.494c0.396-0.05,0.691-0.05,1.282-0.051c0.592,0,2.268,0.046,4.831,0.043
			c2.563-0.053,5.916-0.107,6.409-0.107c0.641-0.001,0.688,0.048,0.738,0.196L728.58,49.645z"/>
		<path fill="#1D1D1B" d="M755.525,72.434c0.197,0,1.084,0.246,1.331,0.394c0.197,0.196,0.197,0.345,0.148,0.542
			c-0.588,2.021-1.128,4.143-1.471,6.263c-0.099,0.493-0.442,0.69-0.837,0.74c-0.492,0.05-1.035,0.051-3.105,0.053
			c-2.021,0.003-4.437-0.142-12.768-0.131c-2.662,0.003-5.076,0.252-5.768,0.304c-0.542,0.049-0.838,0.049-0.937,0.049
			c-0.147-0.195-0.445-1.23-0.396-1.526c2.415-0.298,3.646-0.744,4.039-2.224c0.196-0.69,0.342-2.515,0.336-7.543l-0.014-10.104
			c-0.005-4.19-0.107-6.852-0.257-7.938c-0.15-1.133-0.544-1.33-4.044-1.275c-0.148,0-0.296-0.296-0.199-0.591l0.393-0.888
			c0.051-0.247,0.099-0.247,0.197-0.247c1.479-0.002,3.007,0.045,4.585-0.006c2.516-0.053,5.127-0.204,7.69-0.306
			c0.197,0.148,0.347,1.084,0.347,1.479c-2.958,0.348-4.14,0.597-4.384,2.618c-0.146,1.43-0.29,4.684-0.235,8.676l0.059,6.014
			c0.06,7.79,0.11,9.316,0.16,10.203c0.051,0.691,0.347,1.084,0.938,1.232c0.838,0.295,2.366,0.391,4.584,0.389
			c3.254-0.006,6.408-0.107,8.032-2.623c0.542-0.84,0.935-1.777,1.276-3.305c0.05-0.197,0.1-0.248,0.246-0.248H755.525z"/>
		<path fill="#1D1D1B" d="M776.788,47.364c0.345,0,0.444,0.247,0.593,0.739c1.485,4.779,2.523,7.243,4.254,11.875
			c1.583,4.385,5.588,13.696,6.231,15.225c1.039,2.314,1.729,3.201,4.542,3.74c0.098,0-0.196,1.33-0.394,1.479
			c-4.092-0.043-5.077-0.042-6.705-0.041c-1.575,0.002-2.957,0.202-3.4,0.153c-0.198,0-0.296-0.05-0.345-0.147
			c-0.102-0.296-0.3-1.183-0.249-1.281c2.513-0.695,2.857-1.041,2.264-2.963c-0.248-0.984-1.83-4.976-2.473-6.552
			c-0.149-0.345-0.445-0.739-0.84-0.737c-3.55,0.004-7.738,0.059-10.647,0.209c-0.592,0.051-0.837,0.199-1.231,1.039
			c-0.492,1.035-2.112,5.276-2.111,6.607c0.002,1.085,0.396,1.479,2.861,2.215c0.052,0.295-0.194,1.232-0.393,1.381
			c-2.415-0.047-5.225-0.043-6.26-0.041c-0.84,0-1.628,0.051-1.824,0.002c-0.246,0-0.296-0.05-0.345-0.147
			c-0.198-0.296-0.348-1.231-0.249-1.38c2.119-0.596,2.609-1.68,3.938-4.195c1.376-2.713,6.979-16.573,9.829-23.379
			c0.541-1.333,0.835-2.17,1.13-2.959c0.049-0.247,0.098-0.296,0.295-0.396c0.197-0.098,1.034-0.444,1.479-0.445H776.788z
			 M770.799,66.794c0.296,0,1.331,0.097,3.549,0.095c2.317-0.004,3.697-0.055,5.028-0.105c0.344,0,0.493-0.444,0.395-0.689
			c-1.931-5.225-2.92-8.131-4.453-12.073c-0.1-0.197-0.443-0.098-0.592,0.198c-2.31,5.376-2.948,7.003-4.864,12.035
			c-0.048,0.197,0.248,0.542,0.888,0.541L770.799,66.794L770.799,66.794z"/>
	</g>
	<g>
		<path fill="#A93439" d="M703.202,101.376c-10.98-11.442-17.627-30.052-15.979-45.906c0.32-3.085,1.225-6.174,3.154-8.638
			c2.767-3.531,7.342-2.531,9.141,1.338c1.73,3.722,0.72,8.925-0.553,12.66c-0.298,0.875,4.373,0.535,4.845,0.335
			c4.881-2.065,11.219-3.845,12.62,2.944c1.387,6.715-6.154,17.759-13.575,17.295c-1.91-0.12-4.981,1.056-1.384,1.281
			c10.582,0.662,24.89-9.977,19.132-21.756c-3.172-6.493-16.536-2.445-21.283-0.436c1.614,0.111,3.229,0.225,4.845,0.335
			c1.68-4.934,2.676-12.052-1.782-15.797c-4.578-3.846-13.875-2.571-17.443,1.987c-5.215,6.656-3.229,17.954-1.565,25.434
			c2.361,10.615,7.229,21.372,14.813,29.275C699.135,102.717,703.556,101.746,703.202,101.376L703.202,101.376z"/>
	</g>
	<g>
		<path fill="#1D1D1B" d="M789.741,48.746c1.062,0,1.908,0.863,1.908,1.943c0,1.097-0.847,1.951-1.917,1.951
			c-1.063,0-1.926-0.854-1.926-1.951c0-1.08,0.863-1.943,1.926-1.943H789.741z M789.732,49.048c-0.855,0-1.555,0.734-1.555,1.641
			c0,0.924,0.699,1.649,1.563,1.649c0.862,0.009,1.554-0.725,1.554-1.641c0-0.915-0.69-1.649-1.554-1.649H789.732z M789.369,51.819
			h-0.345v-2.167c0.181-0.026,0.354-0.052,0.612-0.052c0.328,0,0.544,0.069,0.675,0.164c0.13,0.095,0.198,0.242,0.198,0.45
			c0,0.284-0.189,0.457-0.424,0.526v0.018c0.19,0.034,0.319,0.207,0.363,0.526c0.051,0.336,0.104,0.466,0.138,0.535h-0.362
			c-0.052-0.069-0.104-0.268-0.146-0.553c-0.051-0.276-0.189-0.379-0.466-0.379h-0.242L789.369,51.819L789.369,51.819z
			 M789.369,50.619h0.25c0.286,0,0.526-0.103,0.526-0.371c0-0.19-0.138-0.38-0.526-0.38c-0.112,0-0.189,0.008-0.25,0.018V50.619z"/>
	</g>
	<text transform="matrix(1 0 0 1 754.2168 90.5146)" fill="#1D1D1B" font-family="'MyriadPro-Bold'" font-size="8.5529">n</text>
	<text transform="matrix(1 0 0 1 759.2285 90.5146)" fill="#1D1D1B" font-family="'MyriadPro-Bold'" font-size="8.5529">e</text>
	<text transform="matrix(1 0 0 1 763.7441 90.5146)" fill="#1D1D1B" font-family="'MyriadPro-Bold'" font-size="8.5529">b</text>
	<text transform="matrix(1 0 0 1 768.8594 90.5146)" fill="#1D1D1B" font-family="'MyriadPro-Bold'" font-size="8.5529">i</text>
	<text transform="matrix(1 0 0 1 771.2031 90.5146)" fill="#1D1D1B" font-family="'MyriadPro-Bold'" font-size="8.5529">v</text>
	<text transform="matrix(1 0 0 1 775.6074 90.5146)" fill="#1D1D1B" font-family="'MyriadPro-Bold'" font-size="8.5529">o</text>
	<text transform="matrix(1 0 0 1 780.543 90.5146)" fill="#1D1D1B" font-family="'MyriadPro-Bold'" font-size="8.5529">l</text>
	<text transform="matrix(1 0 0 1 782.8945 90.5146)" fill="#1D1D1B" font-family="'MyriadPro-Bold'" font-size="8.5529">o</text>
	<text transform="matrix(1 0 0 1 787.8291 90.5146)" fill="#1D1D1B" font-family="'MyriadPro-Bold'" font-size="8.5529">l</text>
	<text transform="matrix(1 0 0 1 790.1816 90.5146)" fill="#1D1D1B" font-family="'MyriadPro-Bold'" font-size="8.5529"> </text>
	<text transform="matrix(1 0 0 1 739.9844 100.7793)" fill="#1D1D1B" font-family="'MyriadPro-Bold'" font-size="8.5529">2</text>
	<text transform="matrix(1 0 0 1 744.7314 100.7793)" fill="#1D1D1B" font-family="'MyriadPro-Bold'" font-size="8.5529">.</text>
	<text transform="matrix(1 0 0 1 746.9551 100.7793)" fill="#1D1D1B" font-family="'MyriadPro-Bold'" font-size="8.5529">5</text>
	<text transform="matrix(1 0 0 1 751.7021 100.7793)" fill="#1D1D1B" font-family="'MyriadPro-Bold'" font-size="8.5529">,</text>
	<text transform="matrix(1 0 0 1 753.9258 100.7793)" fill="#1D1D1B" font-family="'MyriadPro-Bold'" font-size="8.5529"> </text>
	<text transform="matrix(1 0 0 1 755.6533 100.7793)" fill="#1D1D1B" font-family="'MyriadPro-Bold'" font-size="8.5529">5</text>
	<text transform="matrix(1 0 0 1 760.4004 100.7793)" fill="#1D1D1B" font-family="'MyriadPro-Bold'" font-size="8.5529"> </text>
	<text transform="matrix(1 0 0 1 762.1279 100.7793)" fill="#1D1D1B" font-family="'MyriadPro-Bold'" font-size="8.5529">y</text>
	<text transform="matrix(1 0 0 1 766.6016 100.7793)" fill="#1D1D1B" font-family="'MyriadPro-Bold'" font-size="8.5529"> </text>
	<text transform="matrix(1 0 0 1 768.3281 100.7793)" fill="#1D1D1B" font-family="'MyriadPro-Bold'" font-size="8.5529">1</text>
	<text transform="matrix(1 0 0 1 773.0752 100.7793)" fill="#1D1D1B" font-family="'MyriadPro-Bold'" font-size="8.5529">0</text>
	<text transform="matrix(1 0 0 1 777.8223 100.7793)" fill="#1D1D1B" font-family="'MyriadPro-Bold'" font-size="8.5529"> </text>
	<text transform="matrix(1 0 0 1 779.5498 100.7793)" fill="#1D1D1B" font-family="'MyriadPro-Bold'" font-size="8.5529">m</text>
	<text transform="matrix(1 0 0 1 786.9053 100.7793)" fill="#1D1D1B" font-family="'MyriadPro-Bold'" font-size="8.5529">g</text>
	<text transform="matrix(1 0 0 1 616.8359 90.5146)" fill="#1D1D1B" font-family="'MyriadPro-Bold'" font-size="8.5529">c</text>
	<text transform="matrix(1 0 0 1 620.5986 90.5146)" fill="#1D1D1B" font-family="'MyriadPro-Bold'" font-size="8.5529">o</text>
	<text transform="matrix(1 0 0 1 625.5332 90.5146)" fill="#1D1D1B" font-family="'MyriadPro-Bold'" font-size="8.5529">m</text>
	<text transform="matrix(1 0 0 1 632.8887 90.5146)" fill="#1D1D1B" font-family="'MyriadPro-Bold'" font-size="8.5529">p</text>
	<text transform="matrix(1 0 0 1 638.0039 90.5146)" fill="#1D1D1B" font-family="'MyriadPro-Bold'" font-size="8.5529">r</text>
	<text transform="matrix(1 0 0 1 641.2539 90.5146)" fill="#1D1D1B" font-family="'MyriadPro-Bold'" font-size="8.5529">i</text>
	<text transform="matrix(1 0 0 1 643.5977 90.5146)" fill="#1D1D1B" font-family="'MyriadPro-Bold'" font-size="8.5529">m</text>
	<text transform="matrix(1 0 0 1 650.9521 90.5146)" fill="#1D1D1B" font-family="'MyriadPro-Bold'" font-size="8.5529">i</text>
	<text transform="matrix(1 0 0 1 653.2949 90.5146)" fill="#1D1D1B" font-family="'MyriadPro-Bold'" font-size="8.5529">d</text>
	<text transform="matrix(1 0 0 1 658.3926 90.5146)" fill="#1D1D1B" font-family="'MyriadPro-Bold'" font-size="8.5529">o</text>
	<text transform="matrix(1 0 0 1 663.3281 90.5146)" fill="#1D1D1B" font-family="'MyriadPro-Bold'" font-size="8.5529">s</text>
	<text transform="matrix(1 0 0 1 667.04 90.5146)" fill="#1D1D1B" font-family="'MyriadPro-Bold'" font-size="8.5529"> </text>
	<text transform="matrix(1 0 0 1 616.8359 100.7793)" fill="#1D1D1B" font-family="'MyriadPro-Bold'" font-size="8.5529">r</text>
	<text transform="matrix(1 0 0 1 619.9922 100.7793)" fill="#1D1D1B" font-family="'MyriadPro-Bold'" font-size="8.5529">a</text>
	<text transform="matrix(1 0 0 1 624.5078 100.7793)" fill="#1D1D1B" font-family="'MyriadPro-Bold'" font-size="8.5529">n</text>
	<text transform="matrix(1 0 0 1 629.5195 100.7793)" fill="#1D1D1B" font-family="'MyriadPro-Bold'" font-size="8.5529">u</text>
	<text transform="matrix(1 0 0 1 634.5059 100.7793)" fill="#1D1D1B" font-family="'MyriadPro-Bold'" font-size="8.5529">r</text>
	<text transform="matrix(1 0 0 1 637.6621 100.7793)" fill="#1D1D1B" font-family="'MyriadPro-Bold'" font-size="8.5529">a</text>
	<text transform="matrix(1 0 0 1 642.1777 100.7793)" fill="#1D1D1B" font-family="'MyriadPro-Bold'" font-size="8.5529">d</text>
	<text transform="matrix(1 0 0 1 647.2754 100.7793)" fill="#1D1D1B" font-family="'MyriadPro-Bold'" font-size="8.5529">o</text>
	<text transform="matrix(1 0 0 1 652.21 100.7793)" fill="#1D1D1B" font-family="'MyriadPro-Bold'" font-size="8.5529">s</text>
</g>
<g>
	<g>
		<path fill="#B1B1B1" d="M90.64,99.563c0.681-0.463,1.229-0.594,1.831-0.594c1.093,0,1.844,0.604,1.844,1.514
			c0,0.77-0.045,1.526-0.045,2.387c0,0.338,0,0.759,0.444,0.759c0.068,0,0.159,0,0.238-0.042v0.225
			c-0.16,0.063-0.433,0.146-0.729,0.146c-0.489,0-0.739-0.287-0.785-0.636c-0.545,0.49-1.011,0.748-1.786,0.748
			c-0.762,0-1.513-0.482-1.513-1.26c0-0.82,0.614-1.26,1.604-1.402c1.651-0.236,1.707-0.317,1.707-0.717
			c0-0.687-0.341-1.291-1.25-1.291c-0.604,0-1.173,0.256-1.434,0.697H90.64V99.563z M93.45,101.385
			c-0.786,0.234-2.378,0.164-2.378,1.28c0,0.646,0.489,0.974,0.99,0.974c0.581,0,1.081-0.338,1.343-0.719L93.45,101.385z"/>
		<path fill="#B1B1B1" d="M97.194,97.697h0.057c-0.046,0.512-0.069,1.014-0.092,1.516c0.159,0,0.682-0.011,1.207-0.031
			c-0.012,0.071-0.012,0.144-0.012,0.215c0,0.072,0,0.143,0.012,0.215c-0.399-0.021-0.934-0.021-1.207-0.021
			c-0.022,0.103-0.081,1.71-0.081,2.603c0,0.768,0.024,1.545,0.924,1.545c0.125,0,0.364-0.03,0.512-0.071v0.245
			c-0.262,0.083-0.593,0.154-0.877,0.154c-0.944,0-1.399-0.481-1.399-1.279c0-0.747,0.067-1.67,0.079-3.195
			c-0.227,0-0.478,0-0.772,0.021c0.011-0.082,0.022-0.154,0.022-0.236c0-0.072-0.011-0.132-0.022-0.205
			c0.34,0.02,0.59,0.03,0.75,0.03c-0.011-0.267-0.023-0.706-0.045-1.147L97.194,97.697z"/>
		<path fill="#B1B1B1" d="M101.677,98.969c1.32,0,2.765,0.684,2.765,2.549c0,1.863-1.445,2.549-2.765,2.549
			c-1.32,0-2.765-0.687-2.765-2.549C98.912,99.652,100.356,98.969,101.677,98.969z M101.677,103.738
			c1.342,0,1.764-1.074,1.764-2.221s-0.422-2.223-1.764-2.223c-1.343,0-1.763,1.076-1.763,2.223
			C99.914,102.665,100.334,103.738,101.677,103.738z"/>
		<path fill="#B1B1B1" d="M108.312,99.91c-0.08-0.083-0.33-0.165-0.558-0.165c-0.729,0-1.161,0.625-1.161,1.423
			c0,1.783,0,2.326,0.046,2.796c-0.149-0.03-0.308-0.052-0.455-0.052c-0.162,0-0.308,0.021-0.478,0.052
			c0.045-0.5,0.045-1.3,0.045-2.446v-0.328c0-0.531,0-1.238-0.045-2.119c0.17,0.029,0.316,0.051,0.478,0.051
			c0.147,0,0.306-0.021,0.455-0.051c-0.057,0.49-0.057,0.736-0.057,0.992l0.022,0.01c0.434-0.736,0.979-1.104,1.503-1.104
			c0.136,0,0.216,0.01,0.364,0.061c-0.08,0.162-0.08,0.553-0.08,0.828L108.312,99.91z"/>
		<path fill="#B1B1B1" d="M108.868,99.07c0.194,0.029,0.375,0.051,0.569,0.051c0.172,0,0.331-0.021,0.5-0.051
			c0.467,1.33,1.037,2.65,1.696,3.994c0.614-1.119,1.205-2.664,1.742-3.994c0.112,0.029,0.238,0.051,0.352,0.051
			c0.125,0,0.238-0.021,0.352-0.051c-0.808,1.638-1.639,3.267-2.287,4.894c-0.113-0.03-0.24-0.052-0.353-0.052
			c-0.125,0-0.239,0.021-0.364,0.052C110.382,102.337,109.699,100.708,108.868,99.07z"/>
		<path fill="#B1B1B1" d="M115.025,99.563c0.684-0.463,1.229-0.594,1.831-0.594c1.093,0,1.845,0.604,1.845,1.514
			c0,0.77-0.047,1.526-0.047,2.387c0,0.338,0,0.759,0.445,0.759c0.068,0,0.157,0,0.238-0.042v0.225
			c-0.158,0.063-0.433,0.146-0.728,0.146c-0.49,0-0.74-0.287-0.786-0.636c-0.545,0.49-1.011,0.748-1.786,0.748
			c-0.763,0-1.514-0.482-1.514-1.26c0-0.82,0.614-1.26,1.605-1.402c1.649-0.236,1.706-0.317,1.706-0.717
			c0-0.687-0.342-1.291-1.252-1.291c-0.603,0-1.171,0.256-1.434,0.697h-0.125v-0.533H115.025z M117.836,101.385
			c-0.785,0.234-2.378,0.164-2.378,1.28c0,0.646,0.49,0.974,0.99,0.974c0.58,0,1.082-0.338,1.343-0.719L117.836,101.385z"/>
		<path fill="#B1B1B1" d="M120.544,102.98c0.16,0.277,0.649,0.707,1.286,0.707c0.569,0,1.104-0.317,1.104-0.922
			c0-1.27-2.685-0.521-2.685-2.252c0-0.891,0.683-1.545,1.889-1.545c0.559,0,0.91,0.184,1.264,0.284
			c-0.125,0.194-0.25,0.574-0.273,0.728h-0.136c-0.114-0.328-0.49-0.633-1.003-0.633c-0.444,0-0.967,0.254-0.967,0.858
			c0,1.332,2.686,0.513,2.686,2.241c0,0.779-0.784,1.619-2.048,1.619c-0.692,0-1.148-0.174-1.467-0.338
			c0.092-0.174,0.217-0.541,0.217-0.748H120.544L120.544,102.98z"/>
		<path fill="#B1B1B1" d="M126.006,97.697h0.056c-0.044,0.512-0.067,1.014-0.089,1.516c0.158,0,0.681-0.011,1.206-0.031
			c-0.012,0.071-0.012,0.144-0.012,0.215c0,0.072,0,0.143,0.012,0.215c-0.4-0.021-0.935-0.021-1.206-0.021
			c-0.024,0.103-0.08,1.71-0.08,2.603c0,0.768,0.022,1.545,0.921,1.545c0.124,0,0.365-0.03,0.512-0.071v0.245
			c-0.262,0.083-0.592,0.154-0.877,0.154c-0.944,0-1.399-0.481-1.399-1.279c0-0.747,0.068-1.67,0.079-3.195
			c-0.228,0-0.478,0-0.773,0.021c0.011-0.082,0.022-0.154,0.022-0.236c0-0.072-0.011-0.132-0.022-0.205
			c0.342,0.02,0.592,0.03,0.75,0.03c-0.011-0.267-0.022-0.706-0.044-1.147L126.006,97.697z"/>
		<path fill="#B1B1B1" d="M128.303,99.563c0.685-0.463,1.231-0.594,1.834-0.594c1.092,0,1.844,0.604,1.844,1.514
			c0,0.77-0.047,1.526-0.047,2.387c0,0.338,0,0.759,0.444,0.759c0.069,0,0.16,0,0.239-0.042v0.225
			c-0.159,0.063-0.432,0.146-0.728,0.146c-0.489,0-0.739-0.287-0.785-0.636c-0.545,0.49-1.013,0.748-1.788,0.748
			c-0.761,0-1.512-0.482-1.512-1.26c0-0.82,0.613-1.26,1.603-1.402c1.651-0.236,1.706-0.317,1.706-0.717
			c0-0.687-0.341-1.291-1.25-1.291c-0.603,0-1.172,0.256-1.434,0.697h-0.127v-0.533H128.303z M131.114,101.385
			c-0.783,0.234-2.376,0.164-2.376,1.28c0,0.646,0.489,0.974,0.989,0.974c0.58,0,1.082-0.338,1.343-0.719L131.114,101.385z"/>
		<path fill="#B1B1B1" d="M134.86,97.697h0.055c-0.044,0.512-0.068,1.014-0.091,1.516c0.16,0,0.682-0.011,1.207-0.031
			c-0.013,0.071-0.013,0.144-0.013,0.215c0,0.072,0,0.143,0.013,0.215c-0.399-0.021-0.933-0.021-1.207-0.021
			c-0.022,0.103-0.078,1.71-0.078,2.603c0,0.768,0.021,1.545,0.921,1.545c0.124,0,0.364-0.03,0.512-0.071v0.245
			c-0.261,0.083-0.591,0.154-0.877,0.154c-0.945,0-1.399-0.481-1.399-1.279c0-0.747,0.068-1.67,0.078-3.195
			c-0.227,0-0.477,0-0.772,0.021c0.011-0.082,0.022-0.154,0.022-0.236c0-0.072-0.011-0.132-0.022-0.205
			c0.342,0.02,0.592,0.03,0.75,0.03c-0.012-0.267-0.022-0.706-0.045-1.147L134.86,97.697z"/>
		<path fill="#B1B1B1" d="M137.761,96.766c0.32,0,0.58,0.235,0.58,0.521c0,0.287-0.26,0.523-0.58,0.523
			c-0.317,0-0.582-0.236-0.582-0.523C137.179,97.001,137.444,96.766,137.761,96.766z M137.339,100.984
			c0-0.613-0.023-1.332-0.091-1.914c0.171,0.029,0.342,0.051,0.512,0.051c0.172,0,0.342-0.021,0.513-0.051
			c-0.068,0.582-0.091,1.3-0.091,1.914v1.064c0,0.616,0.023,1.332,0.091,1.916c-0.171-0.029-0.341-0.052-0.513-0.052
			c-0.17,0-0.341,0.021-0.512,0.052c0.068-0.583,0.091-1.3,0.091-1.916V100.984z"/>
		<path fill="#B1B1B1" d="M142.677,99.5c-1.059,0-1.536,0.615-1.536,1.68v0.869c0,0.616,0.023,1.332,0.091,1.916
			c-0.172-0.029-0.342-0.052-0.512-0.052c-0.17,0-0.341,0.021-0.511,0.052c0.067-0.583,0.09-1.3,0.09-1.916v-1.064
			c0-0.613-0.023-1.332-0.09-1.914c0.17,0.029,0.342,0.051,0.511,0.051c0.113,0,0.285-0.021,0.456-0.051
			c-0.024,0.277-0.035,0.541-0.035,0.818h0.023c0.421-0.584,1.001-0.92,1.82-0.92c0.842,0,1.82,0.367,1.82,1.78
			c0,0.584-0.046,1.198-0.046,1.896c0,0.451,0,0.881,0.025,1.32c-0.172-0.029-0.32-0.052-0.479-0.052
			c-0.16,0-0.308,0.021-0.467,0.052c0.023-0.746,0.08-1.494,0.08-2.283v-0.625C143.917,100.053,143.428,99.5,142.677,99.5z"/>
		<path fill="#B1B1B1" d="M146.647,99.563c0.684-0.463,1.229-0.594,1.833-0.594c1.092,0,1.843,0.604,1.843,1.514
			c0,0.77-0.045,1.526-0.045,2.387c0,0.338,0,0.759,0.444,0.759c0.067,0,0.158,0,0.238-0.042v0.225
			c-0.16,0.063-0.432,0.146-0.728,0.146c-0.489,0-0.739-0.287-0.786-0.636c-0.546,0.49-1.012,0.748-1.786,0.748
			c-0.761,0-1.514-0.482-1.514-1.26c0-0.82,0.615-1.26,1.604-1.402c1.65-0.236,1.708-0.317,1.708-0.717
			c0-0.687-0.343-1.291-1.253-1.291c-0.603,0-1.171,0.256-1.434,0.697h-0.126v-0.533H146.647z M149.459,101.385
			c-0.786,0.234-2.379,0.164-2.379,1.28c0,0.646,0.49,0.974,0.99,0.974c0.58,0,1.082-0.338,1.343-0.719L149.459,101.385z"/>
		<path fill="#B1B1B1" d="M157.435,98.73h1.07v2.109h2.346v0.963h-2.346v2.108h-1.07v-2.108h-2.344v-0.963h2.344V98.73z"/>
		<path fill="#B1B1B1" d="M167.587,98.969c1.592,0,2.354,0.95,2.354,2.088c0,0.133-0.011,0.266-0.022,0.399
			c-0.819-0.011-1.626-0.03-2.435-0.03c-0.502,0-0.992,0.02-1.491,0.03c-0.013,0.103-0.013,0.194-0.013,0.287
			c0,1.063,0.705,1.896,1.97,1.896c0.604,0,1.307-0.318,1.707-0.729l0.055,0.031l-0.067,0.502c-0.455,0.326-1.195,0.625-1.9,0.625
			c-1.639,0-2.765-1.045-2.765-2.407C164.98,100.002,165.913,98.969,167.587,98.969z M166.015,101.066
			c0.467,0.01,1.001,0.031,1.479,0.031c0.501,0,1.036-0.021,1.515-0.031c0-0.728-0.216-1.771-1.4-1.771
			C166.492,99.295,166.072,100.329,166.015,101.066z"/>
		<path fill="#B1B1B1" d="M170.659,103.822c1.308-1.424,2.845-3.328,3.663-4.322c-0.215,0-2.219,0.082-3.083,0.152
			c0.021-0.09,0.035-0.184,0.035-0.287c0-0.09-0.013-0.184-0.035-0.295c0.478,0.041,1.444,0.052,2.845,0.052
			c0.648,0,1.012-0.011,1.489-0.052v0.154c-1.217,1.424-3.047,3.594-3.618,4.311c1.242,0,1.969-0.01,3.563-0.143
			c-0.024,0.09-0.046,0.193-0.046,0.287c0,0.09,0.022,0.193,0.046,0.285c-0.946-0.02-1.901-0.052-2.846-0.052
			c-0.672,0-1.343,0.032-2.014,0.052L170.659,103.822L170.659,103.822z"/>
		<path fill="#B1B1B1" d="M178.963,98.969c1.595,0,2.355,0.95,2.355,2.088c0,0.133-0.009,0.266-0.021,0.399
			c-0.818-0.011-1.628-0.03-2.435-0.03c-0.5,0-0.989,0.02-1.491,0.03c-0.012,0.103-0.012,0.194-0.012,0.287
			c0,1.063,0.706,1.896,1.968,1.896c0.605,0,1.31-0.318,1.708-0.729l0.057,0.031l-0.067,0.502c-0.457,0.326-1.194,0.625-1.9,0.625
			c-1.639,0-2.764-1.045-2.764-2.407C176.36,100.002,177.293,98.969,178.963,98.969z M177.395,101.066
			c0.465,0.01,1.001,0.031,1.479,0.031c0.5,0,1.035-0.021,1.512-0.031c0-0.728-0.213-1.771-1.397-1.771
			C177.874,99.295,177.452,100.329,177.395,101.066z"/>
		<path fill="#B1B1B1" d="M183.493,97.697h0.058c-0.046,0.512-0.068,1.014-0.093,1.516c0.161,0,0.684-0.011,1.208-0.031
			c-0.014,0.071-0.014,0.144-0.014,0.215c0,0.072,0,0.143,0.014,0.215c-0.399-0.021-0.934-0.021-1.208-0.021
			c-0.022,0.103-0.078,1.71-0.078,2.603c0,0.768,0.024,1.545,0.921,1.545c0.124,0,0.365-0.03,0.512-0.071v0.245
			c-0.262,0.083-0.591,0.154-0.876,0.154c-0.945,0-1.4-0.481-1.4-1.279c0-0.747,0.069-1.67,0.08-3.195c-0.226,0-0.477,0-0.771,0.021
			c0.009-0.082,0.022-0.154,0.022-0.236c0-0.072-0.013-0.132-0.022-0.205c0.34,0.02,0.591,0.03,0.75,0.03
			c-0.011-0.267-0.023-0.706-0.045-1.147L183.493,97.697z"/>
		<path fill="#B1B1B1" d="M186.396,96.766c0.318,0,0.58,0.235,0.58,0.521c0,0.287-0.262,0.523-0.58,0.523
			c-0.32,0-0.581-0.236-0.581-0.523C185.815,97.001,186.077,96.766,186.396,96.766z M185.975,100.984
			c0-0.613-0.023-1.332-0.093-1.914c0.173,0.029,0.343,0.051,0.515,0.051c0.169,0,0.341-0.021,0.511-0.051
			c-0.067,0.582-0.091,1.3-0.091,1.914v1.064c0,0.616,0.024,1.332,0.091,1.916c-0.17-0.029-0.342-0.052-0.511-0.052
			c-0.171,0-0.342,0.021-0.515,0.052c0.07-0.583,0.093-1.3,0.093-1.916V100.984z"/>
		<path fill="#B1B1B1" d="M188.866,100.984c0-0.613-0.023-1.332-0.091-1.914c0.169,0.029,0.341,0.051,0.512,0.051
			c0.114,0,0.284-0.021,0.455-0.051c-0.023,0.277-0.033,0.541-0.033,0.818h0.021c0.408-0.625,0.968-0.92,1.695-0.92
			c0.773,0,1.492,0.43,1.65,1.012h0.023c0.364-0.655,1.025-1.012,1.831-1.012c0.992,0,1.743,0.459,1.743,1.616
			c0,0.472-0.07,1.056-0.07,2.265c0,0.369,0,0.686,0.034,1.115c-0.159-0.029-0.318-0.052-0.489-0.052
			c-0.17,0-0.34,0.021-0.501,0.052c0.046-0.379,0.115-1.402,0.115-3.234c0-0.688-0.297-1.229-1.195-1.229
			c-0.545,0-0.932,0.226-1.139,0.481c-0.238,0.308-0.273,0.41-0.273,2.355c0,0.594,0.023,0.993,0.058,1.627
			c-0.171-0.029-0.341-0.052-0.502-0.052c-0.158,0-0.328,0.021-0.499,0.052c0.068-0.768,0.101-1.578,0.101-2.324
			c0-1.27-0.01-1.352-0.203-1.67c-0.159-0.256-0.571-0.471-0.943-0.471c-0.98,0-1.457,0.615-1.457,1.68v0.869
			c0,0.616,0.021,1.332,0.089,1.916c-0.17-0.029-0.343-0.052-0.511-0.052c-0.171,0-0.343,0.021-0.512,0.052
			c0.068-0.583,0.091-1.3,0.091-1.916V100.984L188.866,100.984z"/>
		<path fill="#B1B1B1" d="M199.037,96.766c0.319,0,0.582,0.235,0.582,0.521c0,0.287-0.262,0.523-0.582,0.523
			c-0.317,0-0.58-0.236-0.58-0.523C198.457,97.001,198.719,96.766,199.037,96.766z M198.617,100.984
			c0-0.613-0.021-1.332-0.092-1.914c0.173,0.029,0.342,0.051,0.512,0.051c0.172,0,0.342-0.021,0.514-0.051
			c-0.069,0.582-0.091,1.3-0.091,1.914v1.064c0,0.616,0.022,1.332,0.091,1.916c-0.172-0.029-0.342-0.052-0.514-0.052
			c-0.169,0-0.339,0.021-0.512,0.052c0.07-0.583,0.092-1.3,0.092-1.916V100.984z"/>
		<path fill="#B1B1B1" d="M203.884,104.066c-0.716,0-1.353-0.357-1.649-0.748c-0.273,0.186-0.524,0.391-0.763,0.594h-0.203
			c0.067-0.635,0.089-1.955,0.089-2.896v-1.854c0-0.942-0.022-2.263-0.089-2.949c0.169,0.031,0.339,0.052,0.509,0.052
			c0.171,0,0.342-0.021,0.559-0.052c-0.079,0.554-0.114,2.55-0.137,3.819h0.022c0.514-0.717,1.125-1.063,1.936-1.063
			c1.57,0,2.309,1.137,2.309,2.406C206.469,102.941,205.353,104.066,203.884,104.066z M203.931,99.396
			c-0.968,0-1.765,0.595-1.765,2.285c0,1.35,0.581,2.057,1.663,2.057c0.933,0,1.639-0.951,1.639-2.396
			C205.467,100.072,204.716,99.396,203.931,99.396z"/>
		<path fill="#B1B1B1" d="M209.951,98.969c1.593,0,2.355,0.95,2.355,2.088c0,0.133-0.012,0.266-0.023,0.399
			c-0.819-0.011-1.625-0.03-2.434-0.03c-0.501,0-0.991,0.02-1.491,0.03c-0.014,0.103-0.014,0.194-0.014,0.287
			c0,1.063,0.708,1.896,1.97,1.896c0.604,0,1.31-0.318,1.708-0.729l0.058,0.031l-0.069,0.502c-0.455,0.326-1.195,0.625-1.901,0.625
			c-1.638,0-2.765-1.045-2.765-2.407C207.344,100.002,208.277,98.969,209.951,98.969z M208.38,101.066
			c0.467,0.01,1.002,0.031,1.479,0.031c0.5,0,1.035-0.021,1.514-0.031c0-0.728-0.216-1.771-1.4-1.771
			C208.858,99.295,208.437,100.329,208.38,101.066z"/>
	</g>
	<g>
		<g>
			<path fill="#C3002F" d="M169.321,45.097c0,0-16.253-14.253-15.438-23.84c0.236-2.772,1.689-4.535,3.653-5.491
				c-3.804,1.019-7.104,3.671-7.104,8.141c0,10.554,18.688,24.521,18.688,24.521s7.673-6.229,13.188-13.477
				C176.688,40.646,169.321,45.097,169.321,45.097z"/>
			<path fill="#C3002F" d="M171.037,21.576c0.455-5.35,12.457-6.472,16.336-1.433c-2.446-6.697-14.484-6.607-17.738-2.252
				C170.602,18.923,171.155,20.173,171.037,21.576z"/>
		</g>
		<path fill="#FFFFFF" d="M187.373,20.143c0.28,0.769,0.438,1.624,0.438,2.575c0,3.79-2.414,8.17-5.502,12.23
			c3.264-3.308,5.936-7.032,6.237-10.554C188.693,22.663,188.227,21.255,187.373,20.143z"/>
		<path fill="#FFFFFF" d="M168.825,20.277c0-0.896,0.296-1.694,0.811-2.386c-2.622-2.799-8.313-3.967-12.099-2.125
			C162.714,14.379,168.825,16.023,168.825,20.277z"/>
		<polygon fill="#C3002F" points="182.106,24.701 179.792,24.701 179.792,22.096 177.356,22.096 177.356,24.701 175.042,24.701 
			175.042,26.561 177.356,26.561 177.356,29.167 179.792,29.167 179.792,26.561 182.106,26.561 		"/>
	</g>
	<g>
		<g>
			<path fill="#C3002F" d="M74.117,54.475l-1.306,4.065h-0.455c-10.288-9.306-26.204-3.208-25.749,11.712
				c0.454,18.666,18.415,18.666,26.602,12.195l-0.398,3.207c-14.666,8.076-31.832,0.43-31.832-15.401
				c0-9.681,7.732-18.184,20.18-18.184C65.478,52.069,70.651,52.497,74.117,54.475z"/>
			<path fill="#C3002F" d="M117.088,62.605c3.754,9.733-0.794,21.338-11.538,24.976c-1.763,0.535-3.581,0.963-5.457,1.069
				l-6.083-0.213c-9.549-0.963-16.768-8.344-16.768-17.436c-0.228-9.197,5.969-16.846,15.405-18.825
				c2.672-0.535,5.456-0.695,8.128-0.428C107.995,52.604,114.36,56.133,117.088,62.605z M112.996,72.125
				c0.682-7.326-1.875-15.028-9.776-17.863c-1.535-0.481-3.24-0.801-4.889-0.908c-6.649,0-11.879,3.743-14.323,9.359
				c-2.444,7.541-1.875,16.098,4.548,21.553c3.694,2.674,7.9,3.315,12.448,2.674c5.114-1.121,9.095-4.76,10.857-9.358
				L112.996,72.125z"/>
			<path fill="#C3002F" d="M144.544,88.01h-20.066v-35.3h4.89v32.356h15.176V88.01z"/>
			<path fill="#0071CE" d="M191.208,88.01h-5.227l-2.729-26.58l-14.551,26.26h-0.569l-14.325-25.778l-2.556,26.099h-3.753
				l5.229-35.94h0.853l16.03,27.811l16.199-27.811h0.74L191.208,88.01z"/>
			<path fill="#0071CE" d="M196.609,52.71h5.114v35.298h-5.114V52.71z"/>
			<path fill="#0071CE" d="M234.693,77.473c0.34,5.402-4.547,9.896-10.06,10.537h-14.552v-35.3h15.858
				c4.093,0.857,7.673,3.637,7.218,8.022c-0.283,4.386-4.547,7.113-8.638,8.289C229.69,69.396,234.352,72.125,234.693,77.473z
				 M227.474,72.874c-1.763-1.392-4.321-2.515-6.536-2.405h-6.082v15.775h7.447C228.952,85.496,231.738,77.473,227.474,72.874z
				 M227.587,57.953c-1.193-2.194-3.978-3.263-6.309-3.263h-6.309v13.691h6.423C226.28,67.525,230.371,62.443,227.587,57.953z"/>
			<path fill="#0071CE" d="M261.465,88.01h-19.837V52.604h19.44v2.835h-14.779v12.622h13.414v2.515h-13.299v14.922h15.061V88.01z"/>
		</g>
		<g>
			<path fill="#0071CE" d="M269.354,65.695c2.126,0,3.845,1.548,3.845,3.461c0,1.912-1.719,3.459-3.845,3.459
				c-2.125,0-3.843-1.547-3.843-3.459C265.511,67.243,267.229,65.695,269.354,65.695z M269.354,72.26
				c1.902,0,3.394-1.392,3.394-3.102c0-1.711-1.492-3.104-3.394-3.104c-1.9,0-3.394,1.393-3.394,3.104
				C265.961,70.868,267.455,72.26,269.354,72.26z M267.926,68.249c0-0.435-0.033-0.948-0.075-1.306
				c0.291,0.029,0.58,0.049,0.88,0.049c0.291,0,0.581-0.049,0.872-0.049c0.749,0,1.351,0.31,1.351,0.968
				c0,0.791-0.934,1.159-1.469,1.198c0.558,0.627,1.459,1.768,1.9,2.098v0.048c-0.141-0.03-0.28-0.048-0.408-0.048
				c-0.14,0-0.279,0.02-0.418,0.048c-0.528-0.687-1.108-1.373-1.729-2.067h-0.345v0.676c0,0.464,0.022,0.928,0.066,1.392
				c-0.119-0.03-0.236-0.048-0.345-0.048c-0.118,0-0.235,0.02-0.354,0.048c0.032-0.456,0.075-0.899,0.075-1.353L267.926,68.249
				L267.926,68.249z M268.484,68.916c0.077,0.02,0.247,0.039,0.452,0.039c0.731,0,1.353-0.271,1.353-0.977
				c0-0.502-0.419-0.804-0.998-0.804c-0.269,0-0.525,0.021-0.741,0.05c-0.032,0.299-0.066,0.608-0.066,0.907V68.916z"/>
		</g>
	</g>
</g>
</svg>
