<?xml version="1.0" encoding="utf-8"?>
<!-- Generator: Adobe Illustrator 16.0.3, SVG Export Plug-In . SVG Version: 6.00 Build 0)  -->
<!DOCTYPE svg PUBLIC "-//W3C//DTD SVG 1.1//EN" "http://www.w3.org/Graphics/SVG/1.1/DTD/svg11.dtd">
<svg version="1.1" id="Capa_1" xmlns="http://www.w3.org/2000/svg" xmlns:xlink="http://www.w3.org/1999/xlink" x="0px" y="0px"
	 width="857px" height="115px" viewBox="0 0 857 115" enable-background="new 0 0 857 115" xml:space="preserve">
<g>
	<g>
		<path fill="#868789" d="M333.952,12.649h-3.311c-0.168-3.359-1.596-5.039-4.283-5.039c-2.015,0-3.394,1.057-4.138,3.167
			c-0.551,1.56-0.826,4.09-0.826,7.592c0,3.503,0.275,6.034,0.826,7.592c0.744,2.112,2.124,3.167,4.138,3.167
			c3.144,0,4.715-2.89,4.715-8.672H326v-2.59h7.952v13.35h-2.375v-3.49c-0.362,1.152-1.025,2.088-1.989,2.807
			c-1.038,0.791-2.23,1.188-3.582,1.188c-3.063,0-5.222-1.367-6.475-4.103c-0.965-2.062-1.449-5.145-1.449-9.248
			c0-3.959,0.493-6.993,1.477-9.104c1.319-2.831,3.586-4.247,6.801-4.247c3.144,0,5.327,1.103,6.549,3.311
			C333.557,9.506,333.904,10.946,333.952,12.649z"/>
		<path fill="#868789" d="M337.658,31.217V11.929h3.022v2.879c1.07-2.254,2.479-3.383,4.229-3.383c0.607,0,1.058,0.072,1.35,0.216
			v2.951c-0.77-0.095-1.309-0.144-1.619-0.144c-0.912,0-1.764,0.359-2.556,1.08c-0.936,0.888-1.403,2.051-1.403,3.49v12.199H337.658
			z"/>
		<path fill="#868789" d="M347.373,21.573c0-6.765,2.315-10.148,6.944-10.148c4.63,0,6.945,3.383,6.945,10.148
			c0,6.765-2.315,10.148-6.945,10.148C349.689,31.721,347.373,28.338,347.373,21.573z M354.246,29.345
			c2.567,0,3.851-2.59,3.851-7.771c0-2.423-0.24-4.246-0.72-5.47c-0.601-1.535-1.644-2.302-3.131-2.302
			c-2.472,0-3.705,2.59-3.705,7.772C350.541,26.755,351.775,29.345,354.246,29.345z"/>
		<path fill="#868789" d="M376.988,11.929v19.288h-2.88v-2.266h-0.07c-0.384,0.864-1.015,1.541-1.89,2.033
			c-0.876,0.491-1.805,0.738-2.789,0.738c-2.208,0-3.684-0.732-4.426-2.195c-0.433-0.84-0.648-2.146-0.648-3.922V11.929h3.022
			v13.314c0,2.591,0.948,3.886,2.843,3.886c0.96,0,1.799-0.299,2.52-0.899c0.863-0.72,1.295-1.715,1.295-2.987V11.929H376.988z"/>
		<path fill="#868789" d="M380.946,37.55V11.929h2.878v2.375h0.145c0.214-0.767,0.708-1.438,1.481-2.015
			c0.774-0.576,1.663-0.864,2.663-0.864c4.17,0,6.254,3.263,6.254,9.789c0,2.734-0.422,5.037-1.268,6.909
			c-1.111,2.4-2.802,3.599-5.073,3.599c-0.869,0-1.68-0.247-2.428-0.738c-0.748-0.492-1.292-1.146-1.63-1.962v8.529L380.946,37.55
			L380.946,37.55z M383.787,21.573c0,5.039,1.297,7.556,3.888,7.556c1.318,0,2.255-0.695,2.807-2.086
			c0.479-1.225,0.719-3.167,0.719-5.83c0-4.798-1.175-7.197-3.525-7.197c-1.535,0-2.604,0.708-3.203,2.123
			C384.016,17.268,383.787,19.079,383.787,21.573z"/>
	</g>
	<g>
		<g>
			<g>
				<path fill="#808080" d="M316.771,61.975l-0.02-5.143c-0.025-6.418,4.83-11.703,10.813-11.726l22.251-0.087l0.012,3.126
					l-22.251,0.086c-4.381,0.017-7.909,3.897-7.929,8.589l0.02,5.142c0.019,4.647,3.576,8.545,7.92,8.526l22.327-0.086l0.013,3.125
					l-22.251,0.088c-2.973,0.012-5.721-1.295-7.67-3.385C318.015,68.1,316.784,65.184,316.771,61.975z"/>
				<path fill="#808080" d="M386.49,62.197l7.777,11.16l-3.62,0.015l-7.701-11.038l-22.366,0.088l0.043,11.064l-2.896,0.013
					l-0.11-28.509l27.512-0.107c1.714-0.007,3.354,0.522,4.691,1.421c2.292,1.555,3.827,4.264,3.839,7.267
					c0.011,2.386-0.934,4.572-2.529,6.181C389.914,61.031,388.28,61.902,386.49,62.197z M360.569,59.295l24.767-0.096
					c2.857-0.012,5.438-2.491,5.428-5.618c-0.013-3.168-2.69-5.584-5.623-5.572l-24.614,0.095L360.569,59.295z"/>
				<path fill="#808080" d="M402.611,56.499l0.005,1.029l30.214-0.118l0.013,3.126l-30.215,0.118l0.004,1.068
					c0.019,4.648,3.652,8.461,7.958,8.444l22.292-0.086l0.011,3.126l-22.291,0.087c-5.982,0.022-10.841-5.267-10.867-11.644
					l-0.02-5.143c-0.025-6.459,4.87-11.703,10.775-11.726l22.29-0.086l0.014,3.126l-22.29,0.086
					c-2.173,0.008-4.15,0.962-5.591,2.531C403.471,52.011,402.603,54.154,402.611,56.499z"/>
				<path fill="#808080" d="M473.927,56.222l0.065,16.826l-2.896,0.013l-0.053-13.084l-28.729,0.111l0.052,13.083l-2.896,0.011
					l-0.064-16.826c-0.024-6.459,4.87-11.703,10.774-11.726l12.878-0.05c2.972-0.012,5.683,1.294,7.671,3.385
					C472.684,50.095,473.914,53.012,473.927,56.222z M471.031,56.85l-0.001-0.7c-0.02-4.648-3.652-8.46-7.959-8.443l-12.955,0.049
					c-4.267,0.017-7.832,3.897-7.814,8.588l0.003,0.617L471.031,56.85z"/>
				<path fill="#808080" d="M511.109,47.521l-15.051,0.058l0.1,25.384l-2.896,0.012l-0.098-25.384l-15.051,0.059l-0.013-3.126
					l32.996-0.128L511.109,47.521z"/>
				<path fill="#808080" d="M517.068,72.882l-0.111-28.51l2.896-0.012l0.111,28.51L517.068,72.882z"/>
				<path fill="#808080" d="M546.859,72.766l-0.875,0.004l-20.078-28.434l3.62-0.014l17.241,24.453l17.24-24.586l3.657-0.014
					l-20.082,28.589L546.859,72.766z"/>
				<path fill="#808080" d="M576.009,55.826l0.004,1.028l30.216-0.118l0.012,3.125l-30.216,0.117l0.005,1.07
					c0.018,4.649,3.653,8.461,7.958,8.444l22.291-0.086l0.013,3.127L584,72.622c-5.983,0.022-10.844-5.267-10.867-11.644
					l-0.021-5.142c-0.022-6.459,4.87-11.703,10.777-11.726l22.29-0.086l0.012,3.127l-22.29,0.086
					c-2.173,0.008-4.147,0.962-5.592,2.531C576.865,51.339,575.998,53.482,576.009,55.826z"/>
				<path fill="#808080" d="M509.704,108.646l-1.065,0.004l-9.811-24.071c-0.573-0.945-1.187-1.313-2.251-1.308
					c-1.104,0.043-2.321,0.912-2.354,2.188l0.09,23.161l-2.896,0.012l-0.09-23.326c0,0,0.038-0.494,0.188-1.029
					c0.639-2.226,2.422-3.959,4.747-4.133l0.912-0.004c2.019-0.008,3.896,1.879,4.51,3.645l7.925,19.512l7.813-19.572
					c0.64-1.896,2.35-3.629,4.403-3.679l0.954-0.004c2.518,0.032,4.926,2.614,5.012,5.125l0.092,23.327l-2.896,0.01l-0.091-23.162
					c-0.308-1.273-0.882-2.054-2.18-2.255l-0.307-0.041c-1.258,0.005-2.09,1.161-2.276,1.779l-9.511,23.815L509.704,108.646z"/>
				<path fill="#808080" d="M536.228,91.632l0.003,1.029l30.216-0.118l0.013,3.127l-30.217,0.118l0.006,1.067
					c0.019,4.648,3.652,8.463,7.957,8.443l22.29-0.085l0.014,3.126l-22.291,0.086c-5.982,0.024-10.843-5.264-10.866-11.64
					l-0.02-5.144c-0.025-6.459,4.867-11.703,10.773-11.727l22.291-0.088l0.014,3.127l-22.29,0.087
					c-2.173,0.008-4.15,0.963-5.592,2.53C537.084,87.145,536.218,89.289,536.228,91.632z"/>
				<path fill="#808080" d="M572.977,79.807l23.586-0.092c5.981-0.023,10.843,5.264,10.869,11.643l0.019,5.144
					c0.023,6.457-4.869,11.701-10.775,11.726l-23.586,0.092L572.977,79.807z M604.531,91.286c-0.017-4.65-3.649-8.463-7.956-8.445
					l-20.688,0.08l0.084,22.256l20.766-0.079c4.27-0.016,7.835-3.896,7.816-8.589L604.531,91.286z"/>
			</g>
			<g>
				<path fill="#808080" stroke="#808080" stroke-width="2.5391" d="M316.771,61.975l-0.02-5.143
					c-0.025-6.418,4.83-11.703,10.813-11.726l22.251-0.087l0.012,3.126l-22.251,0.086c-4.381,0.017-7.909,3.897-7.929,8.589
					l0.02,5.142c0.019,4.647,3.576,8.545,7.92,8.526l22.327-0.086l0.013,3.125l-22.251,0.088c-2.973,0.012-5.721-1.295-7.67-3.385
					C318.015,68.1,316.784,65.184,316.771,61.975z"/>
				<path fill="#808080" stroke="#808080" stroke-width="2.5391" d="M386.49,62.197l7.777,11.16l-3.62,0.015l-7.701-11.038
					l-22.366,0.088l0.043,11.064l-2.896,0.013l-0.11-28.509l27.512-0.107c1.714-0.007,3.354,0.522,4.691,1.421
					c2.292,1.555,3.827,4.264,3.839,7.267c0.011,2.386-0.934,4.572-2.529,6.181C389.914,61.031,388.28,61.902,386.49,62.197z
					 M360.569,59.295l24.767-0.096c2.857-0.012,5.438-2.491,5.428-5.618c-0.013-3.168-2.69-5.584-5.623-5.572l-24.614,0.095
					L360.569,59.295z"/>
				<path fill="#808080" stroke="#808080" stroke-width="2.5391" d="M402.611,56.499l0.005,1.029l30.214-0.118l0.013,3.126
					l-30.215,0.118l0.004,1.068c0.019,4.648,3.652,8.461,7.958,8.444l22.292-0.086l0.011,3.126l-22.291,0.087
					c-5.982,0.022-10.841-5.267-10.867-11.644l-0.02-5.143c-0.025-6.459,4.87-11.703,10.775-11.726l22.29-0.086l0.014,3.126
					l-22.29,0.086c-2.173,0.008-4.15,0.962-5.591,2.531C403.471,52.011,402.603,54.154,402.611,56.499z"/>
				<path fill="#808080" stroke="#808080" stroke-width="2.5391" d="M473.927,56.222l0.065,16.826l-2.896,0.013l-0.053-13.084
					l-28.729,0.111l0.052,13.083l-2.896,0.011l-0.064-16.826c-0.024-6.459,4.87-11.703,10.774-11.726l12.878-0.05
					c2.972-0.012,5.683,1.294,7.671,3.385C472.684,50.095,473.914,53.012,473.927,56.222z M471.031,56.85l-0.001-0.7
					c-0.02-4.648-3.652-8.46-7.959-8.443l-12.955,0.049c-4.267,0.017-7.832,3.897-7.814,8.588l0.003,0.617L471.031,56.85z"/>
				<path fill="#808080" stroke="#808080" stroke-width="2.5391" d="M511.109,47.521l-15.051,0.058l0.1,25.384l-2.896,0.012
					l-0.098-25.384l-15.051,0.059l-0.013-3.126l32.996-0.128L511.109,47.521z"/>
				<path fill="#808080" stroke="#808080" stroke-width="2.5391" d="M517.068,72.882l-0.111-28.51l2.896-0.012l0.111,28.51
					L517.068,72.882z"/>
				<path fill="#808080" stroke="#808080" stroke-width="2.5391" d="M546.859,72.766l-0.875,0.004l-20.078-28.434l3.62-0.014
					l17.241,24.453l17.24-24.586l3.657-0.014l-20.082,28.589L546.859,72.766z"/>
				<path fill="#808080" stroke="#808080" stroke-width="2.5391" d="M576.009,55.826l0.004,1.028l30.216-0.118l0.012,3.125
					l-30.216,0.117l0.005,1.07c0.018,4.649,3.653,8.461,7.958,8.444l22.291-0.086l0.013,3.127L584,72.622
					c-5.983,0.022-10.844-5.267-10.867-11.644l-0.021-5.142c-0.022-6.459,4.87-11.703,10.777-11.726l22.29-0.086l0.012,3.127
					l-22.29,0.086c-2.173,0.008-4.147,0.962-5.592,2.531C576.865,51.339,575.998,53.482,576.009,55.826z"/>
				<path fill="#808080" stroke="#808080" stroke-width="2.5391" d="M509.704,108.646l-1.065,0.004l-9.811-24.071
					c-0.573-0.945-1.187-1.313-2.251-1.308c-1.104,0.043-2.321,0.912-2.354,2.188l0.09,23.161l-2.896,0.012l-0.09-23.326
					c0,0,0.038-0.494,0.188-1.029c0.639-2.226,2.422-3.959,4.747-4.133l0.912-0.004c2.019-0.008,3.896,1.879,4.51,3.645
					l7.925,19.512l7.813-19.572c0.64-1.896,2.35-3.629,4.403-3.679l0.954-0.004c2.518,0.032,4.926,2.614,5.012,5.125l0.092,23.327
					l-2.896,0.01l-0.091-23.162c-0.308-1.273-0.882-2.054-2.18-2.255l-0.307-0.041c-1.258,0.005-2.09,1.161-2.276,1.779
					l-9.511,23.815L509.704,108.646z"/>
				<path fill="#808080" stroke="#808080" stroke-width="2.5391" d="M536.228,91.632l0.003,1.029l30.216-0.118l0.013,3.127
					l-30.217,0.118l0.006,1.067c0.019,4.648,3.652,8.463,7.957,8.443l22.29-0.085l0.014,3.126l-22.291,0.086
					c-5.982,0.024-10.843-5.264-10.866-11.64l-0.02-5.144c-0.025-6.459,4.867-11.703,10.773-11.727l22.291-0.088l0.014,3.127
					l-22.29,0.087c-2.173,0.008-4.15,0.963-5.592,2.53C537.084,87.145,536.218,89.289,536.228,91.632z"/>
				<path fill="#808080" stroke="#808080" stroke-width="2.5391" d="M572.977,79.807l23.586-0.092
					c5.981-0.023,10.843,5.264,10.869,11.643l0.019,5.144c0.023,6.457-4.869,11.701-10.775,11.726l-23.586,0.092L572.977,79.807z
					 M604.531,91.286c-0.017-4.65-3.649-8.463-7.956-8.445l-20.688,0.08l0.084,22.256l20.766-0.079
					c4.27-0.016,7.835-3.896,7.816-8.589L604.531,91.286z"/>
			</g>
		</g>
		<path fill="#808080" d="M630.826,27.747c6.272-0.012,11.269,5.072,11.279,11.453c0.013,6.478-4.96,11.498-11.283,11.509
			c-6.254,0.012-11.38-4.984-11.394-11.464c-0.013-6.381,5.093-11.486,11.346-11.498H630.826 M630.779,29.528
			c-5.045,0.01-9.158,4.36-9.146,9.711c0.01,5.452,4.143,9.707,9.236,9.695c5.097,0.041,9.17-4.281,9.161-9.681
			c-0.013-5.406-4.105-9.737-9.201-9.726L630.779,29.528L630.779,29.528z M628.688,45.886l-2.047,0.005l-0.026-12.767
			c1.063-0.171,2.085-0.325,3.625-0.328c1.937-0.004,3.2,0.413,3.972,0.963c0.774,0.55,1.164,1.421,1.167,2.649
			c0.005,1.675-1.117,2.692-2.478,3.115v0.114c1.114,0.181,1.882,1.198,2.144,3.079c0.294,1.986,0.622,2.752,0.837,3.155
			l-2.174,0.004c-0.294-0.405-0.591-1.578-0.864-3.254c-0.305-1.613-1.108-2.235-2.761-2.229h-1.405L628.688,45.886z
			 M628.671,38.803l1.474-0.002c1.679-0.002,3.104-0.607,3.1-2.172c0-1.146-0.816-2.249-3.111-2.242
			c-0.642,0-1.114,0.05-1.472,0.099L628.671,38.803z"/>
	</g>
</g>
</svg>
