<?xml version="1.0" encoding="utf-8"?>
<!-- Generator: Adobe Illustrator 16.0.0, SVG Export Plug-In . SVG Version: 6.00 Build 0)  -->
<!DOCTYPE svg PUBLIC "-//W3C//DTD SVG 1.1//EN" "http://www.w3.org/Graphics/SVG/1.1/DTD/svg11.dtd">
<svg version="1.1" id="Capa_1" xmlns="http://www.w3.org/2000/svg" xmlns:xlink="http://www.w3.org/1999/xlink" x="0px" y="0px"
	 width="205px" height="607px" viewBox="0 0 205 607" enable-background="new 0 0 205 607" xml:space="preserve">
<g>
	<path fill="#FFFFFF" d="M51.817,581.846c0,16.769,8.185,25.153,24.554,25.153c16.37,0,14.555-8.387,14.555-25.153V349.484h25.151
		v232.362c0,16.769-1.813,25.153,14.555,25.153c16.369,0,24.556-8.387,24.556-25.153V190.183h11.979v144.928
		c0,8.784,2.994,15.172,8.982,19.164s6.178,3.992,12.563,0c6.391-3.992,9.582-10.381,9.582-19.164V185.392
		c0-16.771-5.59-30.543-16.768-41.322c-11.18-10.779-20.353-16.17-39.517-16.17H64.991c-18.364,0-29.337,5.189-40.916,15.571
		c-11.579,10.381-17.367,23.956-17.367,40.724v152.113c0,7.984,3.193,13.573,9.582,16.769c6.387,3.194,8.575,3.194,14.564,0
		c5.988-3.192,8.982-8.783,8.982-16.769V190.183h11.979L51.817,581.846L51.817,581.846z"/>
	<path fill="#FFFFFF" d="M51.399,62.623c0,13.977,4.991,25.952,14.972,35.935c9.981,9.979,21.958,14.972,35.934,14.972
		c13.972,0,25.751-4.99,35.333-14.972c9.58-9.98,14.371-21.958,14.371-35.935c0-13.974-4.791-25.951-14.371-35.932
		c-9.582-9.981-21.361-14.972-35.333-14.972c-13.975,0-25.952,4.988-35.934,14.972C56.39,36.672,51.399,48.649,51.399,62.623z"/>
</g>
</svg>
