<?xml version="1.0" encoding="utf-8"?>
<!-- Generator: Adobe Illustrator 16.0.0, SVG Export Plug-In . SVG Version: 6.00 Build 0)  -->
<!DOCTYPE svg PUBLIC "-//W3C//DTD SVG 1.1//EN" "http://www.w3.org/Graphics/SVG/1.1/DTD/svg11.dtd">
<svg version="1.1" id="Capa_1" xmlns="http://www.w3.org/2000/svg" xmlns:xlink="http://www.w3.org/1999/xlink" x="0px" y="0px"
	 width="261px" height="606px" viewBox="0 0 261 606" enable-background="new 0 0 261 606" xml:space="preserve">
<g>
	<g>
		<circle fill="#FFFFFF" cx="130.26" cy="58.468" r="50.106"/>
		<path fill="#FFFFFF" d="M147.712,132.464c-12.483-2.533-26.059-2.423-38.321,0.468C26.089,142.694-0.96,239.115,6.678,312.633
			c3.313,31.785,53.42,32.119,50.073,0c-2.778-26.792-1.59-67.227,12.651-95.965c0,34.932,0,69.862,0,104.782
			c0,1.234,0.123,2.391,0.178,3.58c-0.034,0.566-0.167,1.045-0.167,1.623c0,83.146-0.146,166.26-3.58,249.34
			c-1.522,36.935,55.742,36.789,57.254,0c2.69-65.112,3.369-130.262,3.524-195.42c2.712,0.178,5.424,0.178,8.137,0.021
			c0.168,65.158,0.822,130.307,3.492,195.397c1.521,36.787,58.787,36.933,57.254,0c-3.438-83.08-3.561-166.193-3.561-249.342
			c0-2.578-0.344-4.924-0.865-7.182c-0.076-36.1-1.455-72.229-1.033-108.307c17.055,28.872,18.611,72.908,15.654,101.447
			c-3.357,32.096,46.76,31.771,50.07,0C263.578,237.569,235.229,138.646,147.712,132.464z"/>
	</g>
</g>
</svg>
