<?xml version="1.0" encoding="utf-8"?>
<!-- Generator: Adobe Illustrator 16.0.0, SVG Export Plug-In . SVG Version: 6.00 Build 0)  -->
<!DOCTYPE svg PUBLIC "-//W3C//DTD SVG 1.1//EN" "http://www.w3.org/Graphics/SVG/1.1/DTD/svg11.dtd">
<svg version="1.1" id="Capa_1" xmlns="http://www.w3.org/2000/svg" xmlns:xlink="http://www.w3.org/1999/xlink" x="0px" y="0px"
	 width="423px" height="606px" viewBox="0 0 423 606" enable-background="new 0 0 423 606" xml:space="preserve">
<g>
	<g>
		<circle fill="#FFFFFF" cx="216.044" cy="55.829" r="50.106"/>
		<path fill="#FFFFFF" d="M233.496,129.826c-12.483-2.534-26.059-2.423-38.321,0.467c-83.302,9.763-120.351,106.184-112.712,179.702
			c3.313,31.784,53.419,32.118,50.073,0c-2.779-26.793,4.41-67.228,18.651-95.966c-11.826,41.387-13,69.862-13,104.782
			c0,1.233,0.123,2.39,0.178,3.579c-0.034,0.566-0.167,1.045-0.167,1.623c0,83.146,8.282,161.976,9.42,249.341
			c-1.522,36.933,59.742,36.788,61.254,0c2.69-65.114,3.369-130.262,3.524-195.421c2.712,0.178,5.424,0.178,8.137,0.021
			c0.168,65.158,0.822,130.308,3.492,195.398c1.521,36.788,63.787,36.933,62.254,0c0.682-83.485,8.44-166.193,8.44-249.341
			c0-2.579,0.656-4.925,0.134-7.183c-0.076-36.099,2.511-42.914-14.033-108.306c17.055,28.872,24.611,72.908,21.654,101.446
			c-3.357,32.096,46.76,31.772,50.071,0C360.362,234.93,321.013,136.008,233.496,129.826z"/>
	</g>
</g>
</svg>
