<?xml version="1.0" encoding="utf-8"?>
<!-- Generator: Adobe Illustrator 16.0.0, SVG Export Plug-In . SVG Version: 6.00 Build 0)  -->
<!DOCTYPE svg PUBLIC "-//W3C//DTD SVG 1.1//EN" "http://www.w3.org/Graphics/SVG/1.1/DTD/svg11.dtd">
<svg version="1.1" id="Capa_1" xmlns="http://www.w3.org/2000/svg" xmlns:xlink="http://www.w3.org/1999/xlink" x="0px" y="0px"
	 width="423px" height="606px" viewBox="0 0 423 606" enable-background="new 0 0 423 606" xml:space="preserve">
<g>
	<g>
		<circle fill="#FFFFFF" cx="219.68" cy="55.468" r="50.106"/>
		<path fill="#FFFFFF" d="M246.132,129.464c-12.483-2.534-43.059-2.423-55.321,0.467C107.509,139.694,50.46,236.115,58.098,309.633
			c3.313,31.785,53.419,32.119,50.073,0c-2.779-26.792,24.41-67.227,38.651-95.965c-19.682,36.81-34,69.862-34,104.782
			c0,1.234,0.123,2.391,0.178,3.58c-0.034,0.566-0.167,1.045-0.167,1.623c0,83.146,17.307,158.35,30.42,249.34
			c-1.522,36.934,67.742,36.789,69.254,0c2.69-65.113,3.369-130.262,3.524-195.42c2.712,0.178,5.424,0.178,8.137,0.021
			c0.168,65.158,0.822,130.307,3.492,195.398c1.521,36.787,72.787,36.932,71.254,0c12.725-81.992,31.44-166.193,31.44-249.342
			c0-2.578,0.656-4.924,0.134-7.182c-0.076-36.099-3.293-45.195-37.033-108.306c17.055,28.872,44.611,72.908,41.654,101.447
			c-3.357,32.096,46.76,31.771,50.071,0C392.998,234.569,333.648,135.646,246.132,129.464z"/>
	</g>
</g>
</svg>
